<svg width="132" height="21" viewBox="0 0 132 21" fill="none" xmlns="http://www.w3.org/2000/svg">
<path d="M22.4059 11.1052C22.1776 14.9987 19.7595 18.3399 16.2969 20.0455H23.8643C29.2239 20.0455 33.6078 16.095 33.9379 11.1052H22.4059Z" fill="white"/>
<path d="M22.4059 9.89489H33.9379C33.6078 4.90503 29.2239 0.95459 23.8643 0.95459L16.2969 0.954591C19.7595 2.66018 22.1776 6.00133 22.4059 9.89489Z" fill="white"/>
<path d="M17.4642 17.8704C15.7203 19.2294 13.4857 20.0455 11.0497 20.0455C5.4751 20.0455 0.956055 15.7718 0.956055 10.5C0.956055 5.22823 5.4751 0.95459 11.0497 0.95459L11.0539 0.954591C13.4815 0.95554 15.7088 1.76698 17.4496 3.11831L17.4566 3.12383C15.2056 4.87451 13.7701 7.52874 13.7701 10.5C13.7701 13.468 15.2024 16.1196 17.4491 17.8704H17.4642Z" fill="white"/>
<path d="M131.043 16.8307V15.1502H122.897V11.1664H130.384V9.52371H122.897V5.84194H130.983V4.1615H120.841V16.8307H131.043Z" fill="white"/>
<path d="M112.724 15.1502V4.1615H110.668V16.8307H119.453V15.1502H112.724Z" fill="white"/>
<path d="M84.9661 12.5069H82.8516V12.5636C82.8516 13.7546 83.2246 14.8992 84.1527 15.7456C85.0806 16.5921 86.5551 17.1328 88.7413 17.1328C90.6444 17.1328 92.0082 16.7731 92.8969 16.0936C93.788 15.412 94.1919 14.4165 94.1919 13.1678C94.1919 12.1161 93.8373 11.3305 93.184 10.7681C92.5327 10.2075 91.591 9.87444 90.4271 9.71312L87.1728 9.25999C86.5638 9.17638 86.1339 8.96846 85.8562 8.67413C85.5786 8.37996 85.4471 7.99329 85.4471 7.54122C85.4471 6.92218 85.6765 6.33828 86.1666 5.90881C86.657 5.47919 87.4146 5.19869 88.4818 5.19869C89.5977 5.19869 90.4108 5.50691 90.9692 5.99613C91.5281 6.4858 91.8377 7.16186 91.9362 7.90699L91.9428 7.95662H94.0568L94.0519 7.89569C93.9612 6.76079 93.5168 5.74015 92.6189 5.00376C91.7215 4.26773 90.3782 3.82166 88.5017 3.82166C86.7159 3.82166 85.403 4.22961 84.5354 4.90851C83.6666 5.5884 83.2509 6.53508 83.2509 7.59787C83.2509 8.59083 83.5491 9.37565 84.1387 9.95026C84.7276 10.524 85.6003 10.8816 86.7364 11.0336L89.8107 11.449C90.5533 11.5519 91.0985 11.7616 91.4579 12.0831C91.8153 12.4031 91.9956 12.8401 91.9956 13.4132C91.9956 14.047 91.838 14.6329 91.3605 15.0616C90.882 15.491 90.0715 15.7726 88.7413 15.7726C87.4445 15.7726 86.518 15.4359 85.9083 14.8711C85.2984 14.306 84.9975 13.5052 84.9679 12.5619L84.9661 12.5069Z" fill="white"/>
<path d="M79.2847 4.1615V15.2717C79.0113 14.6737 78.7049 14.0238 78.4594 13.5759L73.3116 4.1615H69.7812V16.8307H71.8377V5.7296C71.9447 5.95403 72.0743 6.1849 72.2119 6.4215C72.2591 6.50266 72.3072 6.58447 72.3558 6.667C72.5057 6.92176 72.6595 7.1833 72.8023 7.45327L77.9305 16.8307H81.341V4.1615H79.2847Z" fill="white"/>
<path fill-rule="evenodd" clip-rule="evenodd" d="M51.0292 8.96505H53.2446L53.2387 8.90326C53.0881 7.33665 52.5551 6.07021 51.5193 5.19612C50.4839 4.32227 48.9552 3.84827 46.8301 3.84827C44.4702 3.84827 42.7605 4.5848 41.6415 5.79106C40.5236 6.99611 40.002 8.66297 40.002 10.5133C40.002 12.3914 40.5084 14.0584 41.6114 15.2566C42.7156 16.4561 44.4106 17.1783 46.7702 17.1783C48.9755 17.1783 50.5544 16.6711 51.6098 15.7543C52.6654 14.8375 53.1883 13.5188 53.2987 11.9142L53.3029 11.8538H51.067L51.0629 11.9062C50.9737 13.0207 50.5979 13.9868 49.8941 14.6739C49.1913 15.3601 48.1548 15.7744 46.7302 15.7744C45.1682 15.7744 44.0595 15.2674 43.3391 14.363C42.6164 13.4558 42.278 12.1405 42.278 10.5133C42.278 8.88649 42.6312 7.56362 43.3688 6.64864C44.1044 5.73624 45.2283 5.22176 46.7901 5.22176C48.1549 5.22176 49.1466 5.61533 49.8296 6.26939C50.5136 6.92444 50.8943 7.84685 51.0231 8.91481L51.0292 8.96505ZM53.1784 8.90274C53.1775 8.89265 53.1765 8.88257 53.1755 8.8725C53.1748 8.86557 53.1741 8.85865 53.1734 8.85174C53.1752 8.8687 53.1768 8.8857 53.1784 8.90274Z" fill="white"/>
<path fill-rule="evenodd" clip-rule="evenodd" d="M95.582 10.4867C95.582 12.3457 96.0785 14.0127 97.179 15.2157C98.281 16.42 99.9807 17.1517 102.37 17.1517C104.759 17.1517 106.46 16.4153 107.562 15.2085C108.662 14.0032 109.159 12.3363 109.159 10.4867C109.159 8.66514 108.662 6.99838 107.562 5.78615C106.46 4.57249 104.76 3.82166 102.37 3.82166C99.9807 3.82166 98.28 4.56769 97.179 5.77903C96.0786 6.98895 95.582 8.65576 95.582 10.4867ZM102.37 15.7726C100.757 15.7726 99.6344 15.2684 98.9113 14.3629C98.1872 13.4545 97.8582 12.1333 97.8582 10.4867C97.8582 8.84007 98.1872 7.51838 98.9113 6.6094C99.6344 5.70342 100.757 5.19869 102.37 5.19869C103.983 5.19869 105.107 5.70342 105.829 6.6094C106.554 7.51838 106.882 8.84007 106.882 10.4867C106.882 12.1333 106.554 13.4545 105.829 14.3629C105.107 15.2684 103.983 15.7726 102.37 15.7726Z" fill="white"/>
<path fill-rule="evenodd" clip-rule="evenodd" d="M54.6973 10.4867C54.6973 12.3458 55.1937 14.0127 56.2941 15.2157C57.3958 16.4201 59.0959 17.1517 61.4854 17.1517C63.8752 17.1517 65.5752 16.4152 66.6768 15.2086C67.7772 14.0032 68.2737 12.3363 68.2737 10.4867C68.2737 8.66514 67.7771 6.99839 66.6769 5.78616C65.5755 4.57249 63.8755 3.82166 61.4854 3.82166C59.0955 3.82166 57.3955 4.5677 56.294 5.77904C55.1938 6.98896 54.6973 8.65576 54.6973 10.4867ZM61.4854 15.7691C59.8727 15.7691 58.7494 15.2656 58.0268 14.3611C57.302 13.4535 56.9733 12.1333 56.9733 10.4867C56.9733 8.84008 57.302 7.51749 58.0269 6.60761C58.7495 5.70074 59.8728 5.19515 61.4854 5.19515C63.0981 5.19515 64.2214 5.70074 64.944 6.60761C65.669 7.51749 65.9976 8.84008 65.9976 10.4867C65.9976 12.1333 65.669 13.4535 64.944 14.3611C64.2215 15.2656 63.0982 15.7691 61.4854 15.7691Z" fill="white"/>
</svg>
