<svg width="32" height="32" viewBox="0 0 32 32" fill="none" xmlns="http://www.w3.org/2000/svg">
<path fill-rule="evenodd" clip-rule="evenodd" d="M16.7071 27.3736C16.5196 27.5608 16.2654 27.666 16.0004 27.666C15.7354 27.666 15.4813 27.5608 15.2938 27.3736L7.29378 19.3736C7.19553 19.282 7.11673 19.1716 7.06207 19.0489C7.00742 18.9263 6.97803 18.7939 6.97566 18.6596C6.97329 18.5253 6.99799 18.3919 7.04828 18.2674C7.09858 18.1429 7.17344 18.0298 7.2684 17.9348C7.36335 17.8399 7.47647 17.765 7.60099 17.7147C7.7255 17.6644 7.85887 17.6397 7.99314 17.6421C8.12741 17.6445 8.25983 17.6739 8.3825 17.7285C8.50517 17.7832 8.61557 17.862 8.70712 17.9602L15.0004 24.2536L15.0005 5.33356C15.0005 5.06835 15.1058 4.814 15.2933 4.62646C15.4809 4.43892 15.7352 4.33356 16.0005 4.33356C16.2657 4.33356 16.52 4.43892 16.7076 4.62646C16.8951 4.814 17.0005 5.06835 17.0005 5.33356L17.0004 24.2536L23.2938 17.9602C23.3853 17.862 23.4957 17.7832 23.6184 17.7285C23.7411 17.6739 23.8735 17.6445 24.0078 17.6421C24.142 17.6397 24.2754 17.6644 24.3999 17.7147C24.5244 17.765 24.6375 17.8399 24.7325 17.9348C24.8275 18.0298 24.9023 18.1429 24.9526 18.2674C25.0029 18.392 25.0276 18.5253 25.0252 18.6596C25.0229 18.7939 24.9935 18.9263 24.9388 19.0489C24.8842 19.1716 24.8054 19.282 24.7071 19.3736L16.7071 27.3736Z" fill="#00D9FF"/>
</svg>
