<svg width="230" height="34" viewBox="0 0 230 34" fill="none" xmlns="http://www.w3.org/2000/svg">
<path d="M17.2545 0.138012C17.267 0.139737 17.2794 0.141463 17.2923 0.143241C17.6061 0.186873 17.9197 0.232817 18.2309 0.29323C18.2439 0.295723 18.2568 0.298216 18.2701 0.300784C18.4794 0.341556 18.6867 0.390413 18.8937 0.442032C18.92 0.448571 18.9462 0.455078 18.9724 0.461586C19.9764 0.711214 20.9527 1.06622 21.8864 1.52204C21.9006 1.52901 21.9149 1.53597 21.9296 1.54315C22.2554 1.70269 22.5771 1.87029 22.8893 2.05674C22.9277 2.07964 22.9663 2.10232 23.0049 2.12498C23.1769 2.22629 23.3461 2.33151 23.5132 2.44125C23.5528 2.46727 23.5925 2.49315 23.6322 2.51904C23.7657 2.6064 23.8974 2.69534 24.0258 2.79067C24.0718 2.82484 24.1186 2.85775 24.1656 2.89053C24.281 2.97106 24.3921 3.05602 24.502 3.14425C24.5444 3.178 24.5873 3.21096 24.6303 3.244C24.8282 3.39686 25.021 3.55685 25.209 3.72251C25.2505 3.75909 25.2927 3.79478 25.3352 3.83011C25.4026 3.88671 25.4659 3.94724 25.5293 4.00842C25.5583 4.03633 25.5877 4.06364 25.6177 4.09042C25.6855 4.15118 25.7513 4.21423 25.8172 4.27717C25.8242 4.28383 25.8312 4.2905 25.8384 4.29737C25.976 4.42872 26.1094 4.56416 26.2417 4.7012C26.2752 4.73586 26.3087 4.77046 26.3423 4.80505C26.3639 4.8274 26.3855 4.84976 26.4072 4.87212C26.417 4.8823 26.4269 4.89247 26.4371 4.90295C26.4892 4.95699 26.5392 5.01211 26.5873 5.06989C26.6084 5.09514 26.6302 5.1196 26.6524 5.14381C26.6641 5.15661 26.6641 5.15661 26.676 5.16967C26.6838 5.17821 26.6917 5.18675 26.6997 5.19554C26.7618 5.26323 26.8223 5.3319 26.8812 5.4025C26.8874 5.40983 26.8935 5.41715 26.8998 5.4247C26.9174 5.44583 26.9349 5.46701 26.9524 5.4882C26.9914 5.5353 27.0304 5.58237 27.0697 5.62917C27.1375 5.70996 27.2033 5.79177 27.2667 5.87621C27.303 5.92439 27.3399 5.97186 27.3774 6.01899C27.4712 6.13682 27.5598 6.25823 27.6478 6.3807C27.6681 6.40884 27.6885 6.43684 27.709 6.46478C27.9642 6.81202 28.2008 7.17784 28.421 7.54969C28.4268 7.5595 28.4327 7.56931 28.4386 7.57943C28.6081 7.86636 28.7692 8.15826 28.9218 8.45513C28.928 8.46721 28.9342 8.47928 28.9406 8.49172C28.985 8.57838 29.0286 8.66542 29.072 8.75263C29.0787 8.76609 29.0854 8.77954 29.0924 8.7934C29.212 9.03361 29.3201 9.27819 29.4245 9.52583C29.445 9.57448 29.4658 9.623 29.4866 9.67151C29.6422 10.037 29.7756 10.4122 29.9006 10.7899C29.9044 10.8016 29.9083 10.8133 29.9123 10.8253C29.9576 10.9619 29.9988 11.0988 30.0353 11.2382C30.05 11.2939 30.0667 11.3487 30.0844 11.4035C30.1258 11.5351 30.1583 11.669 30.1913 11.803C30.2055 11.8605 30.2205 11.9174 30.237 11.9742C30.2965 12.1862 30.3378 12.404 30.3822 12.6197C30.3865 12.6406 30.3908 12.6615 30.3952 12.6824C30.4206 12.8052 30.4432 12.9279 30.4609 13.0522C30.4695 13.1113 30.4805 13.1693 30.4934 13.2277C30.5004 13.26 30.5058 13.2925 30.5107 13.3253C30.5127 13.3381 30.5146 13.3509 30.5166 13.3641C30.5185 13.3776 30.5205 13.3912 30.5226 13.4051C30.5247 13.4196 30.5268 13.434 30.529 13.4489C30.5547 13.625 30.5773 13.8016 30.5992 13.9783C30.6007 13.9899 30.6022 14.0015 30.6037 14.0135C30.6176 14.1253 30.6272 14.2369 30.6331 14.3495C30.6364 14.4043 30.6425 14.4585 30.6489 14.5129C30.6615 14.6253 30.6686 14.7375 30.6737 14.8505C30.6751 14.8808 30.6766 14.9112 30.6781 14.9415C30.6813 15.0085 30.6842 15.0755 30.6869 15.1425C30.6874 15.1561 30.688 15.1697 30.6885 15.1837C30.6985 15.4365 30.7029 15.6891 30.7033 15.942C30.7033 15.9516 30.7033 15.9612 30.7034 15.9711C30.7043 16.5629 30.6711 17.155 30.5992 17.7424C30.5972 17.7596 30.5972 17.7596 30.595 17.7772C30.5052 18.5132 30.5052 18.5132 30.4369 18.831C30.4255 18.8847 30.4157 18.9386 30.4059 18.9927C30.2799 19.6925 30.0934 20.3792 29.8698 21.0521C29.861 21.0786 29.8522 21.1052 29.8434 21.1317C29.6738 21.6434 29.4708 22.1429 29.2472 22.6317C29.2405 22.6465 29.2338 22.6612 29.2268 22.6764C29.0726 23.0126 28.9105 23.3443 28.7305 23.6665C28.7067 23.7094 28.6831 23.7525 28.6596 23.7955C28.5694 23.9605 28.4771 24.1236 28.3774 24.2828C28.357 24.3156 28.3369 24.3485 28.3168 24.3815C28.1672 24.6272 28.0085 24.8662 27.8452 25.1023C27.8385 25.112 27.8318 25.1216 27.8249 25.1316C27.7434 25.2495 27.6608 25.3662 27.5745 25.4804C27.555 25.5063 27.5356 25.5322 27.5163 25.5581C27.391 25.7256 27.2631 25.8908 27.1301 26.0519C27.0945 26.0952 27.0597 26.139 27.0252 26.1832C26.9735 26.2488 26.9188 26.3109 26.8632 26.3729C26.8374 26.4017 26.8122 26.4308 26.7874 26.4605C26.7406 26.5162 26.6923 26.5705 26.6439 26.6247C26.6213 26.65 26.5988 26.6755 26.5765 26.7011C26.4534 26.8416 26.3229 26.9747 26.1931 27.1086C26.1587 27.1439 26.1245 27.1794 26.0902 27.2149C26.0635 27.2425 26.0367 27.2702 26.0099 27.2978C25.9973 27.3109 25.9846 27.324 25.972 27.337C25.9085 27.4028 25.8447 27.4674 25.7762 27.5277C25.7373 27.5624 25.7003 27.5994 25.663 27.6359C25.5983 27.6989 25.5321 27.7586 25.4626 27.8159C25.4252 27.8479 25.3895 27.8815 25.354 27.9156C25.2855 27.9814 25.2141 28.0427 25.1412 28.1032C25.1193 28.1218 25.0973 28.1404 25.0755 28.159C25.0515 28.1792 25.0275 28.1994 25.0035 28.2196C24.9968 28.2253 24.9901 28.2309 24.9832 28.2367C24.8571 28.3426 24.7279 28.4437 24.5976 28.5439C24.5658 28.5685 24.5341 28.5932 24.5025 28.618C24.1331 28.9069 23.7463 29.1731 23.351 29.4225C23.3422 29.4281 23.3335 29.4337 23.3244 29.4394C23.1849 29.5277 23.0427 29.611 22.9004 29.6942C22.8911 29.6996 22.8818 29.705 22.8723 29.7106C22.4612 29.95 22.0421 30.1699 21.611 30.3682C21.587 30.3792 21.5631 30.3903 21.5392 30.4013C20.8948 30.6987 20.2252 30.947 19.5454 31.1429C19.5354 31.1458 19.5254 31.1487 19.5152 31.1517C19.4704 31.1646 19.4256 31.1774 19.3808 31.1902C19.34 31.2018 19.2992 31.2137 19.2585 31.2257C19.0645 31.2826 18.868 31.3266 18.6708 31.3698C18.6348 31.3777 18.5988 31.3857 18.5629 31.3937C18.467 31.4151 18.3711 31.4361 18.2752 31.4567C18.2487 31.4624 18.2223 31.4682 18.1958 31.474C18.0084 31.515 17.8187 31.5411 17.6291 31.5684C17.6125 31.5708 17.6125 31.5708 17.5956 31.5732C17.5738 31.5763 17.552 31.5795 17.5303 31.5826C17.4744 31.5907 17.4187 31.5995 17.3631 31.6097C17.2763 31.6251 17.1888 31.6327 17.1012 31.6409C17.003 31.6501 16.9052 31.6598 16.8076 31.6732C16.6878 31.6893 16.5675 31.6979 16.4471 31.7064C16.4352 31.7072 16.4234 31.708 16.4111 31.7089C15.811 31.7507 15.2015 31.7575 14.6006 31.725C14.5899 31.7244 14.5792 31.7238 14.5682 31.7232C14.2429 31.7058 13.9193 31.6816 13.5959 31.6403C13.5545 31.6351 13.5131 31.6303 13.4716 31.6257C13.2961 31.6059 13.1218 31.5783 12.9473 31.5503C12.9352 31.5484 12.9231 31.5465 12.9107 31.5445C12.7264 31.5149 12.5428 31.4828 12.3605 31.442C12.2975 31.428 12.2344 31.4143 12.171 31.4023C11.71 31.3137 11.2551 31.1827 10.8075 31.0394C10.7913 31.0342 10.7913 31.0342 10.7747 31.0289C10.3015 30.8769 9.83676 30.7027 9.38146 30.5003C9.33881 30.4814 9.29596 30.4632 9.25295 30.4453C8.75118 30.2346 8.25802 29.9699 7.78932 29.69C7.75004 29.6666 7.71064 29.6434 7.67123 29.6202C7.51763 29.5296 7.36629 29.4365 7.2176 29.3376C7.18957 29.319 7.16139 29.3008 7.13313 29.2827C6.89148 29.1274 6.65734 28.9599 6.42598 28.7887C6.41667 28.7819 6.40737 28.775 6.39778 28.7679C6.28365 28.6836 6.17061 28.5983 6.06004 28.5091C6.03504 28.4889 6.00994 28.4689 5.98485 28.4489C5.82271 28.3194 5.66286 28.1873 5.50691 28.0499C5.46508 28.0131 5.42269 27.9771 5.3799 27.9415C5.31639 27.8881 5.25628 27.8315 5.19628 27.7741C5.16838 27.7475 5.14023 27.7214 5.11154 27.6957C5.05762 27.6474 5.00508 27.5975 4.95261 27.5475C4.92809 27.5241 4.90345 27.501 4.87865 27.4779C4.7427 27.3507 4.61385 27.2158 4.48431 27.0817C4.45005 27.0462 4.41574 27.0108 4.38141 26.9754C4.35462 26.9478 4.32787 26.9201 4.30112 26.8924C4.28848 26.8794 4.27584 26.8663 4.26318 26.8533C4.19953 26.7876 4.13699 26.7217 4.07862 26.651C4.04505 26.6107 4.00928 26.5726 3.97391 26.534C3.91295 26.4671 3.8552 26.3988 3.79968 26.3269C3.7688 26.2882 3.73625 26.2514 3.7032 26.2147C3.63955 26.1439 3.58025 26.0702 3.52168 25.9948C3.5037 25.9722 3.48571 25.9495 3.4677 25.9269C3.44812 25.9021 3.42856 25.8773 3.40902 25.8525C3.40355 25.8456 3.39809 25.8387 3.39246 25.8315C3.28995 25.7013 3.19213 25.5678 3.09515 25.4332C3.07138 25.4003 3.04746 25.3676 3.02348 25.3349C2.74386 24.9532 2.4862 24.5536 2.24479 24.1451C2.23941 24.1361 2.23402 24.127 2.22847 24.1176C2.14307 23.9735 2.06236 23.8266 1.9819 23.6795C1.97666 23.6699 1.97142 23.6603 1.96602 23.6504C1.73428 23.2257 1.52148 22.7927 1.32958 22.3472C1.31892 22.3225 1.30821 22.2977 1.2975 22.273C1.11766 21.857 0.961452 21.4314 0.818115 21.0006C0.800986 20.9491 0.783577 20.8978 0.765749 20.8466C0.717696 20.7085 0.676825 20.5692 0.63898 20.4277C0.627259 20.3842 0.615154 20.3408 0.603032 20.2974C0.590381 20.252 0.577889 20.2066 0.565422 20.1611C0.557881 20.1336 0.55032 20.1062 0.542744 20.0787C0.494463 19.9031 0.447912 19.7279 0.412513 19.549C0.401357 19.4927 0.389021 19.4374 0.373811 19.3821C0.350362 19.2951 0.334578 19.207 0.318505 19.1183C0.311959 19.0826 0.305378 19.0469 0.298798 19.0112C0.297166 19.0024 0.295533 18.9935 0.293851 18.9843C0.281036 18.9148 0.267474 18.8455 0.253706 18.7761C0.226494 18.6388 0.20342 18.5016 0.184603 18.3628C0.178491 18.3191 0.171884 18.2755 0.165251 18.232C0.102914 17.819 0.0608336 17.4033 0.0321436 16.9865C0.0310343 16.9707 0.0310351 16.9707 0.0299034 16.9547C0.00459204 16.5893 0.000553843 16.2225 6.49038e-05 15.8563C4.86564e-05 15.8462 3.27431e-05 15.836 1.60034e-05 15.8256C-0.00106914 14.9229 0.0527939 13.9978 0.233953 13.1132C0.241821 13.0729 0.24798 13.0327 0.253565 12.992C0.264946 12.9124 0.280607 12.8342 0.296998 12.7556C0.30771 12.7042 0.318239 12.6528 0.327796 12.6012C0.354199 12.4587 0.384976 12.3175 0.417088 12.1763C0.419186 12.1671 0.421283 12.1578 0.423444 12.1483C0.452498 12.0204 0.48373 11.8932 0.517236 11.7665C0.520781 11.753 0.524325 11.7396 0.527976 11.7258C0.632623 11.3319 0.744887 10.9373 0.884968 10.5551C0.902584 10.507 0.91886 10.4584 0.934892 10.4097C1.02108 10.1485 1.12564 9.89399 1.22845 9.63948C1.23171 9.63138 1.23497 9.62328 1.23832 9.61494C1.44841 9.09387 1.70024 8.58213 1.97276 8.09321C1.99636 8.05066 2.01966 8.00796 2.04293 7.96522C2.1396 7.78804 2.23996 7.61426 2.34729 7.44368C2.37152 7.40494 2.39542 7.36601 2.41927 7.32702C2.51747 7.1667 2.6186 7.00933 2.72522 6.85485C2.74483 6.82636 2.76428 6.79776 2.78368 6.7691C2.9165 6.57301 3.0537 6.38023 3.1962 6.19153C3.2015 6.18449 3.20679 6.17746 3.21225 6.17021C3.33363 6.00905 3.45752 5.84998 3.58577 5.69459C3.62117 5.65167 3.65571 5.60814 3.6899 5.56419C3.74468 5.49458 3.80326 5.42915 3.86247 5.3636C3.88949 5.33366 3.91591 5.30331 3.94184 5.27235C4.00063 5.20227 4.06166 5.13431 4.12257 5.0662C4.13225 5.05535 4.13225 5.05535 4.14212 5.04429C4.26924 4.90209 4.40033 4.76425 4.53295 4.62754C4.5665 4.59295 4.59998 4.55828 4.63346 4.52361C4.65509 4.50127 4.67673 4.47893 4.69837 4.45659C4.70822 4.44639 4.71807 4.43619 4.72821 4.42568C4.78051 4.37187 4.83385 4.3202 4.88977 4.27043C4.91422 4.24864 4.93788 4.22614 4.96131 4.2032C4.96957 4.19514 4.97784 4.18709 4.98635 4.17879C4.99461 4.17071 5.00287 4.16262 5.01139 4.15429C5.07689 4.09018 5.14335 4.02762 5.21168 3.96673C5.22232 3.95726 5.22232 3.95726 5.23316 3.94759C5.25362 3.92941 5.27411 3.91128 5.29462 3.89317C5.3402 3.8529 5.38576 3.81262 5.43105 3.772C5.50924 3.70201 5.58842 3.63397 5.67014 3.56841C5.71677 3.53098 5.76271 3.49282 5.80831 3.45406C5.9218 3.35767 6.03857 3.26627 6.15662 3.17595C6.18716 3.15257 6.21765 3.12912 6.24813 3.10565C6.73517 2.73161 7.24516 2.39153 7.77319 2.08276C7.79971 2.06724 7.82619 2.05166 7.85265 2.03605C7.90268 2.00663 7.95294 1.97767 8.00331 1.94889C8.01408 1.94274 8.02484 1.93659 8.03592 1.93025C8.41649 1.71358 8.80555 1.51613 9.20431 1.33788C9.25058 1.31719 9.2967 1.29614 9.3428 1.27502C9.69664 1.11403 10.0599 0.976202 10.4256 0.847004C10.437 0.842992 10.4483 0.838981 10.4599 0.834847C10.5921 0.788111 10.7247 0.745516 10.8595 0.707825C10.9135 0.692553 10.9665 0.675305 11.0195 0.657023C11.1469 0.61428 11.2764 0.580734 11.4062 0.546622C11.4618 0.531967 11.5169 0.516404 11.5719 0.49938C11.777 0.437894 11.9878 0.395274 12.1966 0.349348C12.2168 0.344901 12.237 0.340435 12.2572 0.335949C12.3761 0.30962 12.4948 0.286268 12.6151 0.267985C12.6724 0.259166 12.7285 0.247802 12.785 0.234436C12.8163 0.227198 12.8477 0.221599 12.8794 0.216531C12.8918 0.214544 12.9042 0.212558 12.917 0.210512C12.9301 0.208463 12.9432 0.206414 12.9567 0.204303C12.9707 0.202104 12.9848 0.199905 12.9992 0.19764C13.2408 0.160164 13.4824 0.125794 13.7259 0.104765C13.7719 0.100743 13.8177 0.0957057 13.8635 0.0897335C14.9601 -0.0525229 16.1256 -0.0176384 17.2545 0.138012Z" fill="white"/>
<path d="M10.2245 12.0584C11.0002 12.1914 11.7914 12.2427 12.5754 12.2955C12.6253 12.2989 12.6752 12.3023 12.7251 12.3057C12.946 12.3208 13.1669 12.3337 13.388 12.3449C13.4044 12.3457 13.4207 12.3465 13.4376 12.3474C13.905 12.3712 14.3711 12.3803 14.8395 12.3892C14.8395 14.6881 14.8395 16.987 14.8395 19.3555C14.1523 19.3747 14.1523 19.3747 13.4513 19.3942C13.3192 19.4028 13.1872 19.4113 13.0511 19.42C12.9002 19.4265 12.9002 19.4265 12.827 19.4295C12.4634 19.4453 12.1005 19.4793 11.7379 19.5104C11.7246 19.5115 11.7113 19.5126 11.6976 19.5138C11.658 19.5172 11.6184 19.5206 11.5789 19.5241C11.5669 19.5251 11.5548 19.5261 11.5425 19.5272C11.5313 19.5281 11.5201 19.5291 11.5085 19.5302C11.4988 19.531 11.489 19.5319 11.4789 19.5327C11.4481 19.5364 11.4182 19.5428 11.3878 19.5491C11.3402 19.5529 11.2927 19.5556 11.2451 19.5583C11.2024 19.5608 11.2024 19.5608 11.17 19.5683C11.1383 19.5747 11.1078 19.5782 11.0756 19.5809C11.0578 19.5824 11.0578 19.5824 11.0397 19.5839C11.0154 19.5859 10.9911 19.5879 10.9668 19.5898C10.8695 19.5981 10.7728 19.6102 10.676 19.623C10.6329 19.6287 10.5898 19.634 10.5467 19.6394C10.5294 19.6415 10.5121 19.6437 10.4948 19.6458C10.4687 19.649 10.4427 19.6523 10.4167 19.6555C10.3993 19.6576 10.382 19.6598 10.3646 19.6619C10.3474 19.6641 10.3302 19.6662 10.313 19.6683C10.2714 19.6734 10.2301 19.6792 10.1887 19.6859C10.1731 19.6883 10.1575 19.6908 10.1415 19.6934C10.1212 19.6968 10.1212 19.6968 10.1005 19.7004C9.96505 19.7148 9.82258 19.6854 9.68862 19.6666C9.67107 19.6641 9.65352 19.6617 9.63597 19.6593C9.5993 19.6542 9.56263 19.6491 9.52596 19.6439C9.48036 19.6375 9.43474 19.6312 9.38911 19.6249C9.05513 19.5787 8.72169 19.5286 8.38938 19.4708C8.37549 19.4684 8.37549 19.4684 8.36131 19.466C8.23867 19.4449 8.11633 19.4225 7.99434 19.3977C7.91858 19.3823 7.84283 19.3706 7.76622 19.3606C7.73593 19.3555 7.73593 19.3555 7.72342 19.3426C7.71912 19.3193 7.71555 19.2958 7.71227 19.2723C7.71014 19.2572 7.708 19.2421 7.70581 19.2265C7.70353 19.21 7.70125 19.1934 7.6989 19.1764C7.69649 19.1592 7.69407 19.1419 7.69165 19.1247C7.68525 19.079 7.6789 19.0333 7.67257 18.9875C7.66752 18.9511 7.66242 18.9147 7.65732 18.8783C7.64166 18.7665 7.62622 18.6546 7.61087 18.5428C7.60805 18.5224 7.60805 18.5224 7.60518 18.5016C7.56401 18.2024 7.53536 17.9022 7.51082 17.6011C7.50954 17.5854 7.50825 17.5697 7.50693 17.5536C7.46408 17.0203 7.45614 16.4879 7.4561 15.953C7.45609 15.9376 7.45608 15.9222 7.45607 15.9064C7.45564 15.3472 7.46833 14.7886 7.50769 14.2308C7.50871 14.216 7.50973 14.2011 7.51079 14.1858C7.55238 13.588 7.62344 12.9925 7.72342 12.4021C7.79485 12.3736 7.86775 12.3637 7.94306 12.3521C8.04564 12.3358 8.14766 12.3181 8.24947 12.2973C8.34169 12.2786 8.43335 12.2647 8.52671 12.2536C8.57268 12.2475 8.61752 12.239 8.66296 12.2296C8.77901 12.2056 8.89645 12.1911 9.0138 12.1757C9.0829 12.1665 9.15161 12.1571 9.22007 12.1437C9.2917 12.1297 9.36354 12.1214 9.436 12.1135C9.57149 12.0981 9.70621 12.0792 9.84084 12.0573C9.97254 12.0367 10.0932 12.0355 10.2245 12.0584Z" fill="black"/>
<path d="M20.862 12.0578C20.9624 12.0747 21.063 12.088 21.1641 12.1C21.7163 12.1658 22.2669 12.2618 22.8136 12.3649C22.8647 12.3745 22.9159 12.383 22.9674 12.39C22.9881 12.4382 22.9981 12.4823 23.005 12.5345C23.0071 12.5504 23.0093 12.5663 23.0115 12.5827C23.0137 12.6001 23.0159 12.6174 23.0182 12.6348C23.0206 12.653 23.023 12.6711 23.0254 12.6893C23.0304 12.7275 23.0354 12.7658 23.0403 12.804C23.0465 12.8519 23.0528 12.8998 23.0592 12.9477C23.0887 13.1706 23.1155 13.3937 23.1387 13.6175C23.1432 13.6603 23.1479 13.703 23.1527 13.7457C23.1795 13.9838 23.1993 14.222 23.2137 14.4612C23.2144 14.4735 23.2152 14.4857 23.216 14.4984C23.2453 14.9783 23.2457 15.4592 23.2457 15.9399C23.2457 15.9632 23.2457 15.9632 23.2457 15.9869C23.2458 16.4618 23.2423 16.9345 23.2051 17.4081C23.2038 17.4249 23.2025 17.4418 23.2011 17.4591C23.1677 17.8905 23.1297 18.3215 23.0675 18.7497C23.0648 18.7682 23.0648 18.7682 23.0621 18.7872C23.0353 18.9726 23.0079 19.1578 22.9799 19.343C22.9163 19.3675 22.8536 19.3791 22.7869 19.3898C22.7755 19.3916 22.7642 19.3935 22.7525 19.3954C22.7162 19.4014 22.68 19.4073 22.6437 19.4132C22.5963 19.4209 22.5489 19.4287 22.5015 19.4365C22.4899 19.4384 22.4782 19.4404 22.4662 19.4423C22.3999 19.4533 22.3341 19.4654 22.2683 19.4786C22.1356 19.5048 22.0019 19.523 21.8682 19.5422C21.8132 19.5502 21.7582 19.5582 21.7032 19.5662C21.69 19.5681 21.6767 19.57 21.663 19.572C21.5686 19.5858 21.4745 19.6007 21.3803 19.6164C21.2322 19.6408 21.0834 19.6578 20.9343 19.6745C20.9252 19.6755 20.916 19.6766 20.9066 19.6776C20.8816 19.6804 20.8566 19.6832 20.8315 19.686C20.8 19.6901 20.7714 19.6962 20.7408 19.7042C20.6313 19.7037 20.523 19.6915 20.4149 19.6744C20.2291 19.6462 20.0425 19.6254 19.8558 19.6043C19.8461 19.6032 19.8364 19.6021 19.8264 19.6009C19.1417 19.5234 18.455 19.4591 17.7669 19.4245C17.6846 19.4203 17.6024 19.4154 17.5201 19.4105C16.967 19.3791 16.417 19.3692 15.8623 19.3559C15.8623 17.0572 15.8623 14.7584 15.8623 12.39C16.2173 12.3815 16.5723 12.373 16.9381 12.3642C17.4294 12.3443 17.9185 12.3131 18.4086 12.2748C18.4247 12.2736 18.4247 12.2736 18.441 12.2723C18.4912 12.2684 18.5414 12.2644 18.5915 12.2604C18.6916 12.2524 18.7917 12.2453 18.892 12.2398C18.9755 12.235 19.0582 12.2257 19.1412 12.2159C19.2504 12.2033 19.3591 12.1919 19.4688 12.1863C19.5008 12.1848 19.5008 12.1848 19.5244 12.1775C19.5608 12.1687 19.5967 12.1657 19.6339 12.1624C19.6502 12.1608 19.6665 12.1593 19.6833 12.1578C19.6919 12.157 19.7005 12.1562 19.7094 12.1554C19.9251 12.1357 20.1405 12.1133 20.3546 12.0794C20.3696 12.077 20.3846 12.0747 20.4 12.0722C20.4287 12.0676 20.4573 12.0629 20.4859 12.0581C20.6134 12.0374 20.7348 12.0348 20.862 12.0578Z" fill="black"/>
<path d="M15.8623 5.05789C16.5725 5.05789 16.5725 5.05789 16.8069 5.0684C16.8348 5.06956 16.8626 5.07072 16.8905 5.07187C17.1827 5.08423 17.4748 5.10038 17.7668 5.11769C17.8325 5.12158 17.8982 5.12528 17.964 5.12892C18.5231 5.16006 19.0808 5.21387 19.6376 5.27459C19.6496 5.27589 19.6617 5.2772 19.6741 5.27854C19.7369 5.28538 19.7997 5.29265 19.8624 5.30064C19.885 5.30339 19.9078 5.30554 19.9305 5.30762C19.9928 5.31516 20.0285 5.32576 20.0711 5.37485C20.0848 5.39396 20.0981 5.41339 20.1111 5.43307C20.1184 5.44346 20.1257 5.45385 20.1332 5.46455C20.1484 5.48624 20.1634 5.50806 20.1782 5.53C20.199 5.56077 20.2202 5.59117 20.2417 5.62147C20.2681 5.65878 20.2942 5.69625 20.3202 5.7339C20.3468 5.77244 20.3735 5.81085 20.4006 5.84907C20.4982 5.9873 20.5909 6.12824 20.6814 6.27156C20.6882 6.28231 20.695 6.29305 20.702 6.30412C20.8039 6.46503 20.905 6.62625 21.0002 6.79148C21.0084 6.80565 21.0165 6.81982 21.025 6.83442C21.2294 7.18965 21.4213 7.55216 21.5973 7.92341C21.6088 7.94762 21.6204 7.9718 21.632 7.99597C22.0246 8.81548 22.4175 9.73252 22.5878 10.6338C22.4595 10.6713 22.3315 10.7009 22.2003 10.7252C22.1751 10.7299 22.1498 10.7347 22.1246 10.7395C22.1079 10.7427 22.0911 10.7458 22.0744 10.749C22.0181 10.7596 21.962 10.7711 21.9059 10.7829C21.8119 10.8025 21.7175 10.8192 21.6229 10.8352C21.5992 10.8392 21.5992 10.8392 21.5751 10.8433C21.4512 10.8645 21.4512 10.8645 21.3967 10.8735C21.342 10.8827 21.2878 10.8921 21.2339 10.9055C21.1523 10.9249 21.0691 10.9341 20.9861 10.9451C20.9693 10.9474 20.9525 10.9497 20.9357 10.9519C20.9047 10.9561 20.8737 10.9603 20.8427 10.9644C20.8152 10.9681 20.7877 10.9724 20.7604 10.9774C20.6345 10.9925 20.5103 10.9797 20.3848 10.9656C20.3677 10.9637 20.3506 10.9619 20.3334 10.96C20.297 10.9561 20.2606 10.9521 20.2242 10.9481C20.1268 10.9374 20.0294 10.9271 19.932 10.9168C19.9221 10.9158 19.9123 10.9147 19.9021 10.9137C19.3358 10.8538 18.7684 10.8095 18.2 10.7761C18.1908 10.7756 18.1817 10.7751 18.1722 10.7745C17.4025 10.7292 16.6332 10.7084 15.8623 10.6856C15.8623 8.82844 15.8623 6.9713 15.8623 5.05789Z" fill="black"/>
<path d="M14.8378 5.05789C14.8378 6.91544 14.8378 8.77299 14.8378 10.6868C14.516 10.6954 14.1943 10.7039 13.8627 10.7127C13.7967 10.717 13.7307 10.7212 13.6627 10.7256C13.6102 10.7278 13.5578 10.7297 13.5052 10.7312C13.4759 10.7321 13.4465 10.7331 13.4172 10.734C13.3945 10.7347 13.3945 10.7347 13.3713 10.7355C13.0637 10.7453 12.757 10.7615 12.45 10.7834C12.3446 10.7909 12.2391 10.7968 12.1335 10.8025C12.0001 10.8098 11.867 10.818 11.7341 10.8324C11.6416 10.8423 11.5491 10.8483 11.4563 10.8542C11.3145 10.8635 11.1735 10.8766 11.0322 10.8925C10.9325 10.9036 10.8328 10.9128 10.7328 10.9206C10.6373 10.928 10.5431 10.938 10.4483 10.952C10.3862 10.9604 10.324 10.967 10.2617 10.9731C10.2508 10.9743 10.2398 10.9754 10.2286 10.9766C10.0719 10.9915 9.92309 10.9843 9.76804 10.9575C9.75115 10.9547 9.73425 10.9519 9.71735 10.9491C9.67329 10.9418 9.62926 10.9343 9.58523 10.9267C9.54099 10.9192 9.49673 10.9118 9.45247 10.9045C9.20054 10.8624 8.94949 10.8169 8.69907 10.7661C8.68794 10.7638 8.67681 10.7616 8.66534 10.7593C8.52906 10.7316 8.39284 10.7038 8.25685 10.6747C8.24474 10.6721 8.23262 10.6695 8.22015 10.6669C8.20933 10.6645 8.19851 10.6622 8.18736 10.6598C8.17818 10.6578 8.16901 10.6558 8.15955 10.6538C8.13731 10.648 8.13731 10.648 8.1123 10.6351C8.1326 10.5131 8.16753 10.3964 8.20294 10.2784C8.20621 10.2675 8.20948 10.2565 8.21284 10.2453C8.39915 9.62321 8.6204 9.01786 8.87486 8.42231C8.87851 8.41377 8.88216 8.40522 8.88592 8.39642C8.97706 8.18371 9.07703 7.97547 9.17723 7.76722C9.18589 7.74918 9.18589 7.74918 9.19473 7.73076C9.27172 7.57068 9.3522 7.41326 9.4374 7.25771C9.44448 7.24469 9.45155 7.23167 9.45884 7.21826C9.54889 7.05283 9.64171 6.88915 9.73743 6.72716C9.74282 6.71803 9.74821 6.70889 9.75376 6.69947C9.84469 6.54614 9.94118 6.39653 10.0374 6.24676C10.0437 6.23697 10.05 6.22718 10.0565 6.21709C10.1757 6.03148 10.2983 5.84843 10.4265 5.66931C10.4338 5.65914 10.4411 5.64897 10.4486 5.6385C10.4927 5.57682 10.5371 5.51528 10.582 5.45418C10.5913 5.44154 10.6006 5.42889 10.6102 5.41587C10.6237 5.3988 10.6237 5.3988 10.6375 5.38139C10.645 5.37048 10.6524 5.35956 10.6601 5.34832C10.7135 5.29416 10.7949 5.29981 10.8652 5.29385C10.8899 5.2914 10.9145 5.28895 10.9392 5.28651C10.9736 5.28317 11.0081 5.28009 11.0425 5.27701C11.0945 5.27231 11.1464 5.26721 11.1984 5.26216C11.2388 5.25824 11.2792 5.2544 11.3196 5.2507C11.3415 5.24868 11.3415 5.24868 11.3637 5.24662C11.3765 5.24547 11.3893 5.24431 11.4025 5.24312C11.4356 5.23928 11.4675 5.23317 11.5001 5.22611C11.5221 5.22388 11.5442 5.22205 11.5664 5.22055C11.5794 5.21963 11.5924 5.2187 11.6058 5.21775C11.6199 5.21677 11.634 5.2158 11.6485 5.21479C11.7548 5.20712 11.8608 5.19809 11.9668 5.18652C12.1954 5.16167 12.4244 5.14831 12.6538 5.13556C12.6745 5.1344 12.6745 5.1344 12.6955 5.13322C12.7214 5.13177 12.7473 5.13036 12.7732 5.12899C12.8367 5.12546 12.8996 5.1202 12.9628 5.11247C12.9965 5.10865 13.0301 5.10712 13.064 5.10601C13.0844 5.10529 13.0844 5.10529 13.1052 5.10455C13.1259 5.10387 13.1259 5.10387 13.1471 5.10318C13.1746 5.10227 13.2021 5.10133 13.2297 5.10035C13.2417 5.09996 13.2538 5.09957 13.2662 5.09916C13.3067 5.09703 13.3469 5.09389 13.3873 5.09045C13.4799 5.08292 13.5725 5.0796 13.6654 5.07685C13.6836 5.07629 13.7018 5.07572 13.72 5.07516C13.7582 5.07399 13.7964 5.07286 13.8346 5.07174C13.8726 5.07062 13.9106 5.06946 13.9486 5.06824C14.2452 5.05877 14.5408 5.05789 14.8378 5.05789Z" fill="black"/>
<path d="M10.3667 20.7815C11.1989 20.8863 12.0391 20.9435 12.8761 20.985C12.9607 20.9892 13.0454 20.9937 13.13 20.9985C13.4578 21.0167 13.7859 21.0254 14.114 21.034C14.1285 21.0344 14.1285 21.0344 14.1433 21.0348C14.1884 21.036 14.2336 21.0372 14.2787 21.0383C14.4651 21.0431 14.6514 21.0498 14.8378 21.056C14.8378 22.914 14.8378 24.772 14.8378 26.6864C14.0729 26.6864 14.0729 26.6864 13.7293 26.6691C13.6822 26.6668 13.6351 26.6646 13.5881 26.6625C13.5158 26.6591 13.4436 26.6557 13.3713 26.6521C13.313 26.6493 13.2548 26.6466 13.1965 26.6442C13.0146 26.6367 12.8332 26.6246 12.6517 26.6111C12.6364 26.61 12.6211 26.6089 12.6053 26.6077C12.1377 26.5733 11.6706 26.5353 11.2045 26.4826C11.174 26.4791 11.1434 26.4758 11.1129 26.4724C11.0618 26.4667 11.0107 26.4609 10.9595 26.4551C10.9404 26.4529 10.9213 26.4507 10.9022 26.4486C10.8759 26.4457 10.8497 26.4426 10.8234 26.4395C10.8011 26.437 10.8011 26.437 10.7784 26.4344C10.6786 26.4176 10.6786 26.4176 10.6395 26.3788C10.6332 26.3697 10.6268 26.3605 10.6203 26.3511C10.613 26.3408 10.6057 26.3304 10.5981 26.3198C10.5905 26.3086 10.5829 26.2974 10.575 26.2859C10.5668 26.2743 10.5587 26.2627 10.5503 26.2508C10.5334 26.2267 10.5165 26.2025 10.4997 26.1782C10.4767 26.1453 10.4535 26.1126 10.43 26.08C9.9504 25.4141 9.53529 24.7005 9.1716 23.9606C9.15775 23.9325 9.14386 23.9043 9.12992 23.8762C8.73219 23.0736 8.42436 22.2193 8.17481 21.3561C8.17156 21.3449 8.16831 21.3336 8.16496 21.3221C8.15594 21.2907 8.14699 21.2594 8.13809 21.228C8.13544 21.2188 8.1328 21.2095 8.13007 21.2C8.1123 21.1367 8.1123 21.1367 8.1123 21.1078C8.2222 21.0702 8.33397 21.047 8.44734 21.0239C8.47985 21.0172 8.51234 21.0105 8.54483 21.0037C8.66151 20.9796 8.77826 20.9577 8.89594 20.9394C8.95147 20.9308 9.00604 20.9202 9.06081 20.9071C9.14472 20.8876 9.22902 20.8754 9.31415 20.8634C9.37837 20.8542 9.4418 20.8435 9.50538 20.8303C9.59539 20.8123 9.6858 20.7983 9.77662 20.7853C9.80072 20.7819 9.8248 20.7783 9.84888 20.7747C10.0253 20.7501 10.1911 20.7592 10.3667 20.7815Z" fill="black"/>
<path d="M20.8783 20.778C20.8931 20.7802 20.9078 20.7825 20.923 20.7848C21.0897 20.8108 21.2556 20.8415 21.4215 20.8721C21.5185 20.89 21.6155 20.9071 21.7127 20.923C21.9024 20.9543 22.0903 20.9931 22.2784 21.0328C22.2923 21.0358 22.3063 21.0387 22.3206 21.0417C22.3603 21.0501 22.3999 21.0586 22.4396 21.067C22.4516 21.0696 22.4637 21.0721 22.4762 21.0748C22.4872 21.0772 22.4983 21.0796 22.5097 21.082C22.5194 21.0841 22.5291 21.0862 22.5391 21.0883C22.5628 21.0943 22.5628 21.0943 22.5878 21.1073C22.5717 21.1765 22.555 21.2455 22.5378 21.3144C22.5344 21.3282 22.5344 21.3282 22.5309 21.3423C22.4316 21.7372 22.289 22.1237 22.1503 22.5053C22.1416 22.5292 22.1416 22.5292 22.1328 22.5536C22.0389 22.8138 21.9345 23.0684 21.8238 23.3214C21.8134 23.3452 21.803 23.3691 21.7926 23.393C21.6293 23.7674 21.4551 24.139 21.2549 24.4938C21.2326 24.5338 21.2111 24.5742 21.1897 24.6146C21.1176 24.7508 21.0411 24.8841 20.9627 25.0165C20.9545 25.0303 20.9545 25.0303 20.9462 25.0444C20.8553 25.1977 20.7589 25.3473 20.6627 25.4971C20.6564 25.5069 20.6501 25.5167 20.6436 25.5268C20.5251 25.7113 20.4033 25.8934 20.2759 26.0715C20.2688 26.0815 20.2616 26.0915 20.2543 26.1018C20.2022 26.1745 20.1498 26.2469 20.097 26.319C20.0901 26.3285 20.0833 26.3379 20.0762 26.3476C20.0698 26.3563 20.0635 26.3649 20.057 26.3738C20.0514 26.3813 20.0458 26.3889 20.0401 26.3967C20.0071 26.4359 19.9654 26.4321 19.9178 26.4368C19.9097 26.4376 19.9016 26.4384 19.8932 26.4392C19.8671 26.4418 19.841 26.4444 19.8149 26.4469C19.789 26.4494 19.7631 26.4519 19.7371 26.4545C19.7135 26.4569 19.6899 26.4592 19.6662 26.4615C19.631 26.4656 19.5973 26.4719 19.5626 26.4792C19.541 26.4816 19.5195 26.4836 19.4979 26.4853C19.4856 26.4862 19.4733 26.4872 19.4606 26.4883C19.4476 26.4893 19.4346 26.4903 19.4212 26.4914C19.3328 26.4986 19.2449 26.5067 19.1571 26.5189C19.0816 26.5293 19.0069 26.5349 18.9309 26.5389C18.8689 26.5423 18.8077 26.5484 18.7461 26.5561C18.6159 26.572 18.4853 26.581 18.3546 26.5901C18.2977 26.5941 18.2408 26.5983 18.1839 26.6026C17.8414 26.6287 17.499 26.6463 17.1558 26.6589C17.1102 26.6605 17.0645 26.6623 17.0188 26.6641C16.9365 26.6672 16.8542 26.6703 16.7719 26.6733C16.7404 26.6744 16.709 26.6756 16.6775 26.6768C16.4055 26.6871 16.1349 26.6863 15.8623 26.6863C15.8623 24.8282 15.8623 22.97 15.8623 21.0555C16.2955 21.0427 16.7286 21.0299 17.1749 21.0167C17.544 21.0024 17.544 21.0024 17.9125 20.9778C17.9387 20.9764 17.9649 20.9751 17.9911 20.9742C18.0107 20.9735 18.0107 20.9735 18.0306 20.9727C18.0572 20.9718 18.0837 20.9709 18.1102 20.97C18.1804 20.9674 18.2498 20.9628 18.3196 20.9549C18.3729 20.9497 18.4262 20.9482 18.4797 20.9463C18.5952 20.9416 18.7105 20.9345 18.8258 20.9261C18.8407 20.925 18.8557 20.9239 18.8711 20.9228C18.8852 20.9217 18.8992 20.9207 18.9138 20.9196C18.9324 20.9182 18.9324 20.9182 18.9515 20.9168C18.976 20.9143 19.0005 20.9108 19.0248 20.9066C19.0633 20.9 19.1007 20.8969 19.1396 20.8946C19.1545 20.8937 19.1694 20.8928 19.1847 20.8918C19.2006 20.8908 19.2165 20.8898 19.2329 20.8888C19.3756 20.8797 19.5174 20.8664 19.6595 20.8497C19.7669 20.8373 19.8742 20.8283 19.982 20.8205C20.065 20.8141 20.1478 20.806 20.2306 20.7965C20.2408 20.7953 20.2511 20.7941 20.2616 20.7929C20.3124 20.787 20.3632 20.781 20.414 20.7749C20.5724 20.756 20.7201 20.7532 20.8783 20.778Z" fill="black"/>
<path d="M6.67387 12.6074C6.67589 12.6948 6.67067 12.7783 6.65828 12.8647C6.65586 12.8825 6.65586 12.8825 6.65339 12.9006C6.64827 12.9381 6.64303 12.9756 6.63778 13.0131C6.61427 13.1816 6.59326 13.3497 6.57876 13.5194C6.57391 13.5756 6.56759 13.6316 6.56087 13.6877C6.53405 13.9151 6.51909 14.1438 6.5059 14.3725C6.50361 14.4119 6.5012 14.4514 6.4988 14.4908C6.47094 14.9586 6.46993 15.4267 6.46983 15.8952C6.46983 15.9114 6.46982 15.9275 6.46981 15.9442C6.46959 16.612 6.48732 17.2734 6.55297 17.9382C6.55896 17.9999 6.5635 18.0616 6.5671 18.1235C6.57305 18.2222 6.5849 18.3197 6.59775 18.4177C6.60005 18.4356 6.60233 18.4535 6.60462 18.4713C6.60902 18.5058 6.61345 18.5402 6.6179 18.5746C6.6245 18.626 6.63082 18.6773 6.63699 18.7287C6.63879 18.7436 6.64058 18.7586 6.64243 18.774C6.64339 18.7819 6.64434 18.7899 6.64532 18.7981C6.65322 18.8638 6.6612 18.9294 6.66917 18.9951C6.67247 19.0224 6.67577 19.0497 6.67907 19.0769C6.68049 19.0886 6.68191 19.1003 6.68337 19.1124C6.68438 19.1207 6.68539 19.1291 6.68643 19.1377C6.57918 19.1187 6.47313 19.0953 6.36703 19.0704C6.35446 19.0675 6.35446 19.0675 6.34165 19.0645C6.11708 19.0119 5.89223 18.9585 5.67184 18.8893C5.60269 18.8677 5.53296 18.8491 5.46296 18.8307C5.11253 18.7376 4.76822 18.6245 4.42627 18.5028C4.41591 18.4991 4.40555 18.4954 4.39487 18.4916C3.461 18.1596 2.47386 17.7576 1.71407 17.0905C1.70003 17.0784 1.68599 17.0663 1.67194 17.0542C1.35742 16.7821 1.0323 16.4169 0.985797 15.9762C0.970199 15.6367 1.08374 15.3588 1.28715 15.0951C1.30009 15.0778 1.30009 15.0778 1.31329 15.0601C1.42059 14.9196 1.54441 14.7928 1.68047 14.682C1.71529 14.6536 1.74872 14.6238 1.78235 14.5938C1.94794 14.4515 2.12991 14.3306 2.31514 14.2175C2.34072 14.2018 2.36614 14.1859 2.39153 14.1698C3.22363 13.6493 4.18481 13.2807 5.12001 13.0163C5.21694 12.9887 5.31345 12.9601 5.4096 12.9297C5.50244 12.9004 5.59579 12.875 5.69008 12.8512C5.75786 12.8341 5.82511 12.8157 5.89224 12.7961C6.08346 12.7404 6.27623 12.6902 6.47108 12.65C6.51366 12.6412 6.55472 12.6314 6.59653 12.6189C6.63621 12.6074 6.63621 12.6074 6.67387 12.6074Z" fill="black"/>
<path d="M24.0137 12.6074C24.0925 12.6159 24.1678 12.6319 24.2448 12.6511C24.2573 12.6541 24.2698 12.6572 24.2827 12.6604C24.3235 12.6704 24.3642 12.6806 24.405 12.6908C24.419 12.6943 24.4331 12.6978 24.4476 12.7014C25.0479 12.8512 25.6438 13.0237 26.228 13.2308C26.2869 13.2517 26.346 13.2718 26.4052 13.2916C26.5682 13.3464 26.7276 13.4103 26.8869 13.4755C26.8947 13.4787 26.9025 13.4819 26.9106 13.4852C27.2203 13.6118 27.53 13.7425 27.8257 13.9014C27.8583 13.9188 27.891 13.9359 27.9238 13.9529C28.2982 14.1494 28.6587 14.377 28.9823 14.6546C28.9921 14.663 28.9921 14.663 29.0022 14.6716C29.1566 14.8041 29.2989 14.9431 29.4214 15.1081C29.4316 15.1215 29.4418 15.1348 29.4523 15.1486C29.6327 15.3922 29.7427 15.68 29.71 15.9891C29.6561 16.3468 29.4418 16.6267 29.2081 16.8832C29.2004 16.8917 29.1927 16.9002 29.1847 16.909C29.1332 16.9641 29.0767 17.0119 29.0189 17.0598C28.9953 17.0796 28.9718 17.0998 28.9487 17.1203C28.2813 17.7141 27.3947 18.0859 26.5741 18.3895C26.5482 18.3991 26.5223 18.4088 26.4964 18.4184C26.0555 18.5833 25.6077 18.7249 25.1554 18.8526C25.1468 18.855 25.1382 18.8575 25.1293 18.86C24.8338 18.9436 24.5381 19.0252 24.2395 19.0964C24.2283 19.099 24.2172 19.1017 24.2057 19.1045C24.1951 19.107 24.1845 19.1094 24.1736 19.112C24.1645 19.1141 24.1554 19.1163 24.146 19.1185C24.1021 19.127 24.058 19.1322 24.0137 19.1377C24.0156 19.1234 24.0176 19.1091 24.0196 19.0944C24.0717 18.7112 24.114 18.3276 24.1485 17.9422C24.1522 17.9013 24.156 17.8603 24.1598 17.8194C24.2164 17.1946 24.2329 16.5696 24.2303 15.9424C24.23 15.8733 24.23 15.8042 24.2299 15.7351C24.2309 15.1014 24.2309 15.1014 24.1961 14.469C24.1857 14.3425 24.1796 14.2157 24.173 14.0889C24.1725 14.0797 24.172 14.0706 24.1715 14.0611C24.1702 14.0361 24.1689 14.0111 24.1676 13.9861C24.1644 13.9447 24.1586 13.905 24.1517 13.8642C24.1496 13.8439 24.1478 13.8236 24.1463 13.8033C24.1454 13.7918 24.1445 13.7804 24.1436 13.7686C24.1422 13.7502 24.1422 13.7502 24.1407 13.7314C24.1284 13.5797 24.112 13.4287 24.0945 13.2776C24.0883 13.2239 24.0823 13.1701 24.0763 13.1164C24.073 13.087 24.0696 13.0576 24.0663 13.0282C24.0642 13.0093 24.0621 12.9904 24.06 12.9715C24.0463 12.8498 24.0311 12.7285 24.0137 12.6074Z" fill="black"/>
<path d="M7.1451 21.3765C7.15461 21.3986 7.15461 21.3986 7.16175 21.4283C7.16467 21.4399 7.16759 21.4515 7.17059 21.4634C7.17378 21.4765 7.17697 21.4895 7.18025 21.503C7.28172 21.8962 7.4078 22.2842 7.54501 22.6656C7.54805 22.6741 7.5511 22.6825 7.55423 22.6913C7.75976 23.2632 7.99679 23.8198 8.25736 24.3672C8.26347 24.3801 8.26959 24.393 8.2759 24.4063C8.3608 24.585 8.45084 24.7605 8.5448 24.9344C8.55134 24.9465 8.55788 24.9586 8.56462 24.9711C8.70362 25.2279 8.84743 25.4812 9.00098 25.729C9.02028 25.7603 9.03939 25.7917 9.05845 25.8232C9.12405 25.9312 9.19066 26.0377 9.2628 26.1413C9.28213 26.1719 9.28213 26.1719 9.28213 26.1976C9.20761 26.1915 9.13455 26.1814 9.06099 26.1678C9.05176 26.1661 9.04254 26.1644 9.03303 26.1626C8.92452 26.1425 8.81625 26.1211 8.70804 26.0994C8.69173 26.0961 8.69173 26.0961 8.67508 26.0927C8.31376 26.0198 7.95339 25.9417 7.59614 25.8498C7.54771 25.8374 7.49922 25.8252 7.45073 25.8131C7.00347 25.701 6.56537 25.5683 6.12984 25.415C6.09039 25.4011 6.05091 25.3873 6.01141 25.3736C5.26773 25.1129 4.49637 24.7638 3.9208 24.1996C3.91184 24.1912 3.90289 24.1828 3.89366 24.1741C3.77143 24.0556 3.68191 23.9088 3.62087 23.7484C3.61663 23.7374 3.61239 23.7265 3.60803 23.7152C3.55415 23.5564 3.5844 23.4088 3.64586 23.2586C3.66765 23.2128 3.69262 23.1714 3.72085 23.1297C3.73232 23.1121 3.73232 23.1121 3.74403 23.0942C3.8671 22.9151 4.02507 22.7693 4.19574 22.6398C4.20604 22.6319 4.20604 22.6319 4.21655 22.6238C4.91635 22.0859 5.78912 21.7491 6.62301 21.5028C6.667 21.4898 6.71092 21.4765 6.75485 21.4632C6.78131 21.4552 6.80777 21.4473 6.83424 21.4393C6.85182 21.434 6.86941 21.4287 6.88699 21.4234C6.9119 21.4159 6.93682 21.4084 6.96174 21.4009C6.97629 21.3965 6.99084 21.3921 7.00584 21.3876C7.10002 21.361 7.10002 21.361 7.1451 21.3765Z" fill="black"/>
<path d="M9.28213 5.55055C9.26528 5.5982 9.24438 5.6375 9.21667 5.67935C9.20856 5.6917 9.20046 5.70405 9.1921 5.71677C9.18341 5.72992 9.17471 5.74308 9.16575 5.75663C9.07174 5.90043 8.98199 6.04634 8.89472 6.19456C8.88868 6.20477 8.88263 6.21497 8.87641 6.22549C8.51298 6.83955 8.18547 7.47964 7.90743 8.13949C7.90367 8.1484 7.89991 8.15731 7.89603 8.1665C7.77619 8.44745 7.77619 8.44745 7.67384 8.73545C7.65512 8.79047 7.63331 8.84373 7.61136 8.89745C7.50489 9.16173 7.42131 9.43487 7.33712 9.70729C7.32199 9.75622 7.30673 9.80511 7.29141 9.85398C7.23662 10.029 7.18398 10.2046 7.1326 10.3807C7.01302 10.3625 6.89887 10.328 6.78346 10.2921C6.7735 10.289 6.76353 10.286 6.75327 10.2828C6.54396 10.2182 6.33659 10.1479 6.12984 10.0752C6.09039 10.0613 6.05091 10.0476 6.01141 10.0338C5.26773 9.77335 4.49637 9.42451 3.9208 8.86078C3.91184 8.85238 3.90289 8.84398 3.89366 8.83533C3.77143 8.71691 3.68191 8.57028 3.62087 8.40997C3.61663 8.39902 3.61239 8.38806 3.60803 8.37677C3.55415 8.2181 3.5844 8.07067 3.64586 7.92052C3.66765 7.87484 3.69262 7.83345 3.72085 7.79172C3.73232 7.77419 3.73232 7.77419 3.74403 7.7563C3.8671 7.57734 4.02507 7.43161 4.19574 7.30227C4.20604 7.29434 4.20604 7.29434 4.21655 7.28626C4.90808 6.75518 5.77201 6.41698 6.59664 6.17408C6.64205 6.1607 6.68726 6.14671 6.73245 6.13252C6.95324 6.06396 7.17599 6.00486 7.39973 5.94742C7.41447 5.94364 7.42921 5.93985 7.44439 5.93596C7.53072 5.91383 7.61709 5.8919 7.70351 5.87013C7.73065 5.86329 7.75778 5.85642 7.78491 5.84952C7.97454 5.80134 8.16481 5.758 8.35626 5.71815C8.39977 5.70908 8.44326 5.69989 8.48675 5.69069C8.63076 5.66044 8.77463 5.63266 8.91995 5.61004C8.98231 5.60027 9.04395 5.58752 9.10561 5.57389C9.22645 5.54718 9.22645 5.54718 9.28213 5.55055Z" fill="black"/>
<path d="M23.569 21.366C23.654 21.3821 23.7364 21.4029 23.8191 21.4283C23.8308 21.4319 23.8425 21.4354 23.8545 21.4391C23.8923 21.4506 23.9301 21.4622 23.9679 21.4739C23.9808 21.4779 23.9938 21.4819 24.0071 21.486C24.2381 21.5571 24.4664 21.6345 24.6935 21.7178C24.7193 21.7272 24.7453 21.7366 24.7712 21.7459C25.4893 22.0044 26.2216 22.3402 26.7787 22.8864C26.7877 22.8948 26.7966 22.9032 26.8058 22.9118C26.9736 23.0745 27.1099 23.3048 27.123 23.5451C27.1156 23.8343 26.9127 24.0715 26.7219 24.2624C26.6535 24.329 26.5795 24.3876 26.504 24.4454C26.4972 24.4506 26.4904 24.4559 26.4835 24.4613C25.9832 24.8488 25.3765 25.1311 24.7859 25.3366C24.7446 25.3511 24.7036 25.366 24.6626 25.381C24.4157 25.4709 24.1671 25.5528 23.916 25.6292C23.8842 25.6389 23.8524 25.6487 23.8206 25.6586C23.6661 25.7066 23.51 25.7483 23.3536 25.7894C23.3397 25.793 23.3259 25.7967 23.3116 25.8004C23.0923 25.8581 22.8723 25.9107 22.6507 25.9582C22.5942 25.9703 22.5382 25.9833 22.4823 25.9982C22.3924 26.022 22.3013 26.0388 22.2101 26.0559C22.1761 26.0623 22.1422 26.0688 22.1083 26.0752C22.0999 26.0768 22.0915 26.0784 22.0829 26.0801C22.0267 26.0908 21.9708 26.1023 21.9148 26.1141C21.8133 26.1353 21.7113 26.1518 21.609 26.1679C21.5906 26.1708 21.5722 26.1737 21.5538 26.1766C21.5095 26.1837 21.4652 26.1907 21.4209 26.1976C21.4414 26.1419 21.4687 26.0952 21.5013 26.0463C21.5127 26.0289 21.524 26.0116 21.5353 25.9942C21.5441 25.9808 21.5441 25.9808 21.5531 25.9671C21.7331 25.6905 21.8982 25.4048 22.0578 25.1154C22.0651 25.1023 22.0723 25.0893 22.0797 25.0759C22.1995 24.86 22.311 24.6402 22.4202 24.4184C22.4425 24.3731 22.465 24.328 22.4875 24.2828C22.6472 23.9608 22.7863 23.6281 22.9188 23.2933C22.9278 23.2707 22.9369 23.2482 22.9461 23.2257C22.9946 23.1071 23.0396 22.9872 23.0843 22.867C23.0884 22.856 23.0925 22.8451 23.0967 22.8337C23.1501 22.6902 23.2027 22.5464 23.2529 22.4016C23.2577 22.3877 23.2625 22.3739 23.2675 22.3596C23.2998 22.2654 23.3288 22.1704 23.3567 22.0746C23.3628 22.0538 23.3689 22.0329 23.375 22.012C23.3996 21.9279 23.4242 21.8439 23.4487 21.7598C23.4871 21.6279 23.5257 21.4963 23.569 21.366Z" fill="black"/>
<path d="M21.4209 5.54901C21.5302 5.55939 21.6377 5.57967 21.7456 5.59974C21.7612 5.60263 21.7612 5.60263 21.7771 5.60558C22.1803 5.68058 22.5829 5.76365 22.9808 5.86449C23.0097 5.8718 23.0386 5.87902 23.0676 5.88625C23.7862 6.06586 24.4939 6.28111 25.1801 6.56688C25.188 6.57015 25.1959 6.57343 25.204 6.5768C25.2965 6.61524 25.3885 6.65466 25.4799 6.69572C25.4881 6.69942 25.4964 6.70311 25.5049 6.70692C25.9673 6.91624 26.4116 7.18616 26.7787 7.54609C26.7877 7.5545 26.7966 7.5629 26.8058 7.57156C26.9736 7.73426 27.1099 7.96451 27.123 8.20481C27.1156 8.49399 26.9127 8.73126 26.7219 8.92216C26.6535 8.98876 26.5795 9.04737 26.504 9.10511C26.4972 9.11036 26.4904 9.11561 26.4835 9.12103C25.9832 9.5085 25.3765 9.79079 24.7859 9.99636C24.7446 10.0108 24.7036 10.0258 24.6626 10.0407C24.4141 10.1312 24.1637 10.2133 23.911 10.2904C23.8742 10.3017 23.8374 10.3131 23.8007 10.3246C23.782 10.3304 23.7633 10.3362 23.7447 10.342C23.7293 10.3468 23.714 10.3516 23.6983 10.3565C23.6553 10.3681 23.6131 10.3751 23.569 10.3807C23.4746 10.0816 23.4746 10.0816 23.4348 9.93212C23.1504 8.87936 22.7089 7.84493 22.1328 6.76014C22.1256 6.74706 22.1183 6.73397 22.1109 6.72048C21.938 6.40736 21.7599 6.0976 21.5652 5.79824C21.5606 5.79113 21.556 5.78401 21.5512 5.77668C21.5286 5.74191 21.5059 5.70721 21.4831 5.67258C21.4709 5.65397 21.4709 5.65397 21.4585 5.63497C21.4512 5.62396 21.4439 5.61294 21.4365 5.60159C21.4209 5.57478 21.4209 5.57478 21.4209 5.54901Z" fill="black"/>
<path d="M13.4505 1.20662C13.4004 1.26167 13.3455 1.30381 13.2854 1.34698C13.1753 1.42726 13.0687 1.51146 12.9624 1.597C12.9266 1.62573 12.8904 1.65398 12.8541 1.68226C12.7592 1.75698 12.6666 1.83471 12.5739 1.91245C12.5612 1.92309 12.5485 1.93373 12.5355 1.94469C12.513 1.96347 12.4906 1.98227 12.4682 2.00108C12.4468 2.01906 12.4253 2.03698 12.4038 2.05482C12.3204 2.12403 12.2393 2.19552 12.1584 2.26773C12.128 2.29486 12.0975 2.32178 12.0667 2.34844C11.9773 2.42584 11.8908 2.50566 11.806 2.58828C11.7657 2.62758 11.7249 2.66607 11.6828 2.70346C11.6442 2.73775 11.6077 2.77329 11.5721 2.81079C11.5376 2.84714 11.5024 2.88152 11.4648 2.91446C11.404 2.96873 11.3472 3.02662 11.2903 3.08505C11.2793 3.09636 11.2682 3.10767 11.2568 3.11932C11.2277 3.14915 11.1986 3.17901 11.1695 3.20889C11.1518 3.22706 11.1341 3.24521 11.1164 3.26335C11.082 3.29853 11.0476 3.33375 11.0132 3.36899C11.0028 3.37969 10.9923 3.39039 10.9815 3.40141C10.9282 3.45633 10.8766 3.51204 10.8276 3.57107C10.8074 3.59461 10.7862 3.61662 10.7644 3.63854C10.7263 3.67695 10.6911 3.71716 10.6562 3.7586C10.6314 3.78794 10.606 3.81672 10.5805 3.84548C10.5155 3.91928 10.4526 3.99481 10.3897 4.07045C10.3696 4.09452 10.3494 4.11847 10.3291 4.1424C10.3225 4.15031 10.3158 4.15821 10.3089 4.16635C10.2963 4.18131 10.2836 4.19624 10.271 4.21114C10.2652 4.21804 10.2593 4.22493 10.2534 4.23204C10.2453 4.24159 10.2453 4.24159 10.237 4.25135C10.2193 4.27309 10.2193 4.27309 10.2069 4.29665C10.1864 4.33288 10.17 4.35825 10.1313 4.37431C10.0996 4.38099 10.0684 4.38507 10.0361 4.38834C10.0244 4.38986 10.0126 4.39138 10.0005 4.39295C9.96297 4.39773 9.9254 4.40194 9.8878 4.40614C9.86292 4.40918 9.83803 4.41227 9.81316 4.41539C9.76535 4.42135 9.71752 4.42716 9.66968 4.43284C9.56464 4.44549 9.46091 4.46141 9.35786 4.48606C9.30644 4.49717 9.25429 4.50297 9.20218 4.50961C9.08948 4.52472 8.97838 4.54438 8.8669 4.56691C8.78447 4.58351 8.70178 4.59859 8.61909 4.61379C8.28636 4.67508 7.95622 4.74483 7.62744 4.82563C7.60122 4.83203 7.575 4.83843 7.54878 4.84483C7.48505 4.86041 7.42136 4.87616 7.35767 4.89194C7.31764 4.90182 7.2776 4.91162 7.23754 4.9214C7.06247 4.96415 6.88796 5.00683 6.71586 5.06102C6.67035 5.07493 6.62455 5.08771 6.57877 5.10064C6.13696 5.22566 5.7009 5.37209 5.27471 5.5451C5.2648 5.54912 5.25488 5.55314 5.24467 5.55729C5.14417 5.59819 5.04472 5.63986 4.94755 5.68865C4.93515 5.69342 4.93515 5.69342 4.92251 5.6983C4.91424 5.69406 4.90598 5.68983 4.89746 5.68547C4.96917 5.61168 5.04091 5.53793 5.11269 5.46423C5.14604 5.43 5.17936 5.39575 5.21267 5.36148C5.24487 5.32833 5.27711 5.29522 5.30937 5.26212C5.3216 5.24956 5.33382 5.23699 5.34603 5.22441C5.40877 5.15977 5.47178 5.09642 5.53965 5.03742C5.56248 5.01695 5.58377 4.9954 5.605 4.97321C5.64216 4.93453 5.68106 4.89879 5.72118 4.86338C5.75314 4.83477 5.78431 4.80535 5.81554 4.7759C5.87114 4.72392 5.92833 4.67477 5.9869 4.62636C6.03073 4.58938 6.07339 4.55116 6.11609 4.51282C6.18285 4.45305 6.25085 4.39561 6.32093 4.33999C6.36764 4.3029 6.41357 4.26503 6.45917 4.22652C6.57806 4.12622 6.70129 4.03269 6.82597 3.94013C6.84522 3.92579 6.86446 3.91145 6.8837 3.89711C6.93061 3.86221 6.97766 3.8275 7.02477 3.79288C7.04948 3.77469 7.07411 3.7564 7.09874 3.7381C7.3457 3.5558 7.60262 3.38421 7.86415 3.2247C7.89268 3.20724 7.92107 3.18957 7.94946 3.17188C8.10736 3.07369 8.26734 2.97953 8.4289 2.88779C8.44105 2.88088 8.4532 2.87398 8.46572 2.86686C8.84085 2.65465 9.22523 2.45885 9.61856 2.28462C9.62718 2.2808 9.63581 2.27697 9.64469 2.27303C10.0784 2.08097 10.5209 1.91575 10.9704 1.76696C10.9952 1.75875 11.0199 1.75051 11.0447 1.74227C11.2475 1.6751 11.4515 1.61672 11.6582 1.5637C11.7182 1.54822 11.7778 1.5316 11.8373 1.51392C11.9144 1.49109 11.9917 1.47109 12.0699 1.45286C12.0836 1.44966 12.0972 1.44646 12.1113 1.44316C12.4838 1.3569 12.8588 1.27781 13.2381 1.23099C13.2491 1.22963 13.2601 1.22827 13.2714 1.22687C13.281 1.22573 13.2905 1.2246 13.3004 1.22342C13.4107 1.20585 13.4107 1.20585 13.4505 1.20662Z" fill="black"/>
<path d="M25.7704 26.0434C25.7522 26.0869 25.7293 26.1153 25.6971 26.1487C25.6822 26.1642 25.6822 26.1642 25.667 26.1801C25.6562 26.1912 25.6454 26.2023 25.6343 26.2137C25.6232 26.2252 25.6121 26.2367 25.6007 26.2486C25.5771 26.273 25.5536 26.2974 25.53 26.3217C25.5 26.3526 25.4701 26.3836 25.4402 26.4147C25.4114 26.4446 25.3826 26.4744 25.3537 26.5042C25.3378 26.5207 25.3378 26.5207 25.3216 26.5375C25.2674 26.5933 25.2126 26.6473 25.1545 26.6986C25.1316 26.7195 25.1102 26.7414 25.0889 26.764C25.0518 26.8031 25.0129 26.8393 24.9728 26.8751C24.9409 26.904 24.9098 26.9338 24.8786 26.9636C24.8231 27.0162 24.766 27.0659 24.7075 27.1149C24.6637 27.1523 24.6211 27.191 24.5785 27.2297C24.5118 27.2902 24.4439 27.3483 24.3739 27.4046C24.3273 27.4421 24.2814 27.4804 24.2359 27.5194C24.1171 27.6208 23.9941 27.7155 23.8695 27.8091C23.8503 27.8236 23.8311 27.8381 23.8119 27.8526C23.7651 27.8879 23.7182 27.923 23.6712 27.958C23.654 27.9707 23.6369 27.9835 23.6198 27.9964C22.7517 28.6485 21.7896 29.1793 20.4765 29.7362C20.466 29.7405 20.4555 29.7448 20.4447 29.7492C20.2327 29.8353 20.019 29.9148 19.8012 29.9837C19.7858 29.9886 19.7703 29.9936 19.7544 29.9986C19.7233 30.0085 19.6922 30.0184 19.6611 30.0283C19.6219 30.0408 19.5827 30.0534 19.5436 30.0661C19.3781 30.1196 19.2113 30.1667 19.0438 30.2123C18.9847 30.2284 18.9259 30.2454 18.8673 30.2632C18.778 30.2899 18.6881 30.3118 18.5975 30.3326C18.5893 30.3345 18.581 30.3365 18.5725 30.3384C18.5124 30.3524 18.4522 30.3661 18.3919 30.3797C18.3838 30.3816 18.3756 30.3834 18.3672 30.3853C18.1908 30.4251 18.0147 30.4628 17.8358 30.4882C17.7802 30.4961 17.7249 30.5058 17.6696 30.5155C17.5976 30.528 17.5254 30.5395 17.4532 30.5509C17.4381 30.5534 17.423 30.5559 17.4074 30.5584C17.3858 30.5618 17.3858 30.5618 17.3637 30.5653C17.3442 30.5684 17.3442 30.5684 17.3243 30.5716C17.2914 30.5744 17.2914 30.5744 17.2539 30.5615C17.3821 30.4595 17.5105 30.3578 17.6408 30.2588C17.8002 30.1375 17.9537 30.0093 18.1067 29.8796C18.1267 29.8626 18.1468 29.8457 18.1668 29.8287C18.2349 29.7712 18.3021 29.7128 18.3689 29.6538C18.4121 29.6158 18.4558 29.5784 18.4998 29.5415C18.5593 29.4912 18.6162 29.4383 18.6726 29.3844C18.6999 29.3585 18.7275 29.333 18.7554 29.3078C18.853 29.2196 18.9482 29.1288 19.0426 29.037C19.0499 29.0299 19.0573 29.0228 19.0648 29.0154C19.0729 29.0076 19.081 28.9997 19.0893 28.9916C19.1096 28.972 19.13 28.9526 19.1506 28.9333C19.2711 28.8197 19.3861 28.7005 19.501 28.5809C19.5348 28.5457 19.5687 28.5107 19.6025 28.4756C19.6243 28.453 19.6461 28.4304 19.6678 28.4077C19.6828 28.3922 19.6828 28.3922 19.6981 28.3764C19.7502 28.3221 19.8003 28.2669 19.8482 28.2086C19.8684 28.1847 19.8896 28.1624 19.9114 28.1402C19.9488 28.1019 19.9834 28.0619 20.0176 28.0206C20.042 27.9917 20.067 27.9635 20.0922 27.9353C20.1523 27.868 20.2093 27.799 20.2648 27.7274C20.3036 27.6788 20.345 27.6329 20.387 27.5872C20.4194 27.5502 20.4194 27.5502 20.4417 27.5048C20.4767 27.4398 20.5079 27.3925 20.5787 27.3686C20.6641 27.3494 20.7502 27.3405 20.8372 27.3329C20.9104 27.3259 20.983 27.314 21.0557 27.3028C21.0846 27.2986 21.1135 27.2944 21.1424 27.2902C21.2845 27.2697 21.4259 27.2484 21.5666 27.2195C21.6085 27.2114 21.65 27.2063 21.6924 27.2023C21.7264 27.1979 21.759 27.1885 21.7922 27.1796C21.8325 27.1694 21.8732 27.1623 21.9141 27.1551C21.9328 27.1517 21.9515 27.1484 21.9703 27.145C21.9801 27.1432 21.99 27.1415 22.0002 27.1396C22.0898 27.1233 22.1792 27.106 22.2687 27.0888C22.2923 27.0843 22.3159 27.0798 22.3395 27.0753C22.3744 27.0687 22.4093 27.062 22.4441 27.0553C22.4596 27.0524 22.4596 27.0524 22.4754 27.0494C22.5317 27.0385 22.5872 27.0256 22.6428 27.0109C22.7157 26.9916 22.789 26.9764 22.8629 26.9619C23.0369 26.9266 23.2084 26.8823 23.3802 26.837C23.4097 26.8293 23.4392 26.8216 23.4686 26.8139C23.5564 26.791 23.6442 26.7678 23.732 26.7445C23.7472 26.7405 23.7625 26.7364 23.7782 26.7323C23.8238 26.7202 23.8694 26.708 23.9149 26.6958C23.9286 26.6922 23.9423 26.6886 23.9564 26.6848C24.0538 26.6587 24.1497 26.629 24.2452 26.5959C24.2904 26.5806 24.3362 26.5675 24.3822 26.5547C24.521 26.5158 24.6563 26.4681 24.7919 26.4183C24.8156 26.4097 24.8393 26.401 24.863 26.3923C24.9321 26.3671 25.0011 26.3416 25.0701 26.3161C25.0845 26.3108 25.0845 26.3108 25.0992 26.3053C25.2868 26.236 25.4727 26.1638 25.6556 26.0823C25.6672 26.0772 25.6787 26.0721 25.6905 26.0668C25.7056 26.06 25.7056 26.06 25.721 26.0531C25.7454 26.0434 25.7454 26.0434 25.7704 26.0434Z" fill="black"/>
<path d="M4.89746 26.0434C4.97196 26.0678 5.04353 26.0961 5.11549 26.1275C5.21341 26.1699 5.3121 26.2103 5.4109 26.2505C5.42146 26.2548 5.43203 26.2592 5.44292 26.2636C6.00433 26.4926 6.59013 26.6581 7.17408 26.8127C7.19871 26.8192 7.22332 26.8257 7.24794 26.8323C7.33253 26.8548 7.41725 26.8766 7.50221 26.8976C7.51479 26.9007 7.52737 26.9038 7.54033 26.907C8.26366 27.0845 8.9965 27.2237 9.73318 27.326C9.77977 27.3325 9.82633 27.3392 9.8729 27.3459C9.90685 27.3506 9.94084 27.355 9.97484 27.3594C9.99626 27.3624 10.0177 27.3654 10.0391 27.3685C10.0488 27.3696 10.0584 27.3708 10.0684 27.372C10.1534 27.3845 10.1911 27.4217 10.2432 27.4925C10.252 27.5054 10.2607 27.5184 10.2697 27.5318C10.2886 27.5559 10.3077 27.5799 10.3269 27.6038C10.336 27.6155 10.3452 27.6272 10.3546 27.6392C10.3913 27.6852 10.4298 27.7293 10.4686 27.7734C10.4924 27.8004 10.5158 27.8277 10.539 27.8553C10.6255 27.9578 10.7143 28.0581 10.8037 28.1578C10.8303 28.1875 10.8569 28.2172 10.8833 28.2469C10.9967 28.3739 11.1138 28.4967 11.2322 28.6187C11.264 28.6515 11.2958 28.6844 11.3276 28.7174C11.3481 28.7386 11.3687 28.7598 11.3893 28.7811C11.4033 28.7956 11.4033 28.7956 11.4176 28.8104C11.4688 28.8631 11.5211 28.9136 11.576 28.9623C11.6032 28.9867 11.6284 29.0128 11.6535 29.0395C11.6947 29.0826 11.737 29.123 11.7814 29.1624C11.8109 29.1891 11.8395 29.2165 11.8681 29.2441C11.9358 29.3094 12.0048 29.3715 12.077 29.4315C12.1123 29.4615 12.1459 29.4929 12.1795 29.5248C12.2348 29.5774 12.2917 29.627 12.3502 29.6757C12.389 29.7084 12.4271 29.7419 12.4652 29.7756C12.5425 29.8436 12.6219 29.9085 12.7021 29.9729C12.7317 29.9967 12.7611 30.0207 12.7906 30.0448C12.9639 30.1859 13.1388 30.3248 13.3172 30.4589C13.3259 30.4654 13.3346 30.472 13.3436 30.4787C13.3604 30.4913 13.3771 30.5038 13.3939 30.5163C13.413 30.5306 13.4318 30.5454 13.4505 30.5602C13.4505 30.5644 13.4505 30.5687 13.4505 30.5731C13.3127 30.5659 13.1786 30.5437 13.0428 30.5197C13.0313 30.5177 13.0198 30.5157 13.0079 30.5136C12.6782 30.4559 12.3511 30.3902 12.0253 30.3118C12.014 30.3091 12.0026 30.3064 11.991 30.3036C11.4404 30.1708 10.8981 29.9979 10.3688 29.7929C10.3443 29.7834 10.3197 29.774 10.2952 29.7646C10.1798 29.7203 10.0652 29.6739 9.9512 29.6259C9.9383 29.6205 9.9383 29.6205 9.92514 29.615C9.75894 29.545 9.59421 29.4719 9.43072 29.3954C9.41732 29.3891 9.40391 29.3829 9.3901 29.3764C9.04674 29.2155 8.70696 29.0439 8.3788 28.8518C8.35975 28.8407 8.35975 28.8407 8.34031 28.8293C7.72115 28.4658 7.12459 28.0624 6.563 27.6094C6.55585 27.6037 6.54871 27.5979 6.54134 27.592C6.40786 27.4845 6.27662 27.3744 6.14771 27.2611C6.10478 27.2234 6.06133 27.1865 6.01747 27.15C5.95392 27.0966 5.89377 27.0399 5.83374 26.9824C5.80611 26.9561 5.77824 26.9303 5.7498 26.9049C5.69285 26.8538 5.63758 26.8008 5.58233 26.7478C5.55325 26.7199 5.5241 26.692 5.49489 26.6643C5.37423 26.5492 5.25743 26.4304 5.1415 26.3103C5.11056 26.2782 5.07955 26.2463 5.04854 26.2143C5.02885 26.1939 5.00916 26.1736 4.98947 26.1532C4.9802 26.1436 4.97093 26.1341 4.96138 26.1242C4.95296 26.1155 4.94454 26.1068 4.93586 26.0977C4.92842 26.09 4.92098 26.0823 4.91331 26.0744C4.89746 26.0564 4.89746 26.0564 4.89746 26.0434Z" fill="black"/>
<path d="M17.2539 1.20638C17.3459 1.21386 17.4365 1.2253 17.5275 1.24076C17.5463 1.2439 17.5463 1.2439 17.5655 1.24711C17.6057 1.25385 17.6459 1.26067 17.6861 1.26751C17.6999 1.26984 17.7136 1.27217 17.7278 1.27457C18.2154 1.35718 18.696 1.46292 19.172 1.59974C19.1835 1.60303 19.1949 1.60631 19.2067 1.6097C19.8639 1.79882 20.5058 2.03241 21.1306 2.31479C21.1569 2.32666 21.1832 2.33847 21.2095 2.35028C21.2272 2.35822 21.2449 2.36616 21.2626 2.3741C21.2706 2.37768 21.2785 2.38125 21.2868 2.38494C21.4226 2.44603 21.556 2.51199 21.6884 2.58074C21.728 2.60134 21.7678 2.62167 21.8077 2.64188C22.1929 2.83765 22.5669 3.05779 22.9316 3.29145C22.9428 3.29864 22.9541 3.30583 22.9656 3.31324C23.3682 3.57174 23.7581 3.85334 24.1322 4.1538C24.1393 4.15952 24.1464 4.16524 24.1538 4.17113C24.2871 4.27806 24.4182 4.38749 24.5469 4.5002C24.5898 4.53768 24.6331 4.57439 24.677 4.61071C24.7404 4.66384 24.8005 4.72016 24.8604 4.77738C24.888 4.80357 24.9159 4.82921 24.9443 4.85445C25.0011 4.90526 25.0563 4.95792 25.1115 5.01065C25.1407 5.03857 25.1699 5.06643 25.1993 5.09423C25.3157 5.20497 25.429 5.31872 25.5411 5.43409C25.5701 5.46398 25.5993 5.49376 25.6285 5.52354C25.647 5.54257 25.6655 5.56161 25.684 5.58065C25.6927 5.58953 25.7014 5.5984 25.7104 5.60754C25.7183 5.61572 25.7262 5.6239 25.7344 5.63232C25.7414 5.6395 25.7484 5.64667 25.7556 5.65406C25.7704 5.67256 25.7704 5.67256 25.7704 5.6983C25.6829 5.66973 25.5984 5.63544 25.5134 5.5996C25.2974 5.50882 25.0782 5.42853 24.8575 5.35079C24.8492 5.34786 24.8409 5.34492 24.8324 5.3419C24.6048 5.26157 24.376 5.18707 24.1447 5.11911C24.1279 5.11416 24.1112 5.1092 24.0944 5.10424C23.8019 5.01786 23.5074 4.94123 23.2113 4.86892C23.1827 4.86195 23.1542 4.85495 23.1256 4.84794C23.075 4.83556 23.0244 4.82327 22.9738 4.81102C22.9595 4.80754 22.9451 4.80406 22.9303 4.80047C22.8353 4.77772 22.7399 4.75752 22.6442 4.73814C22.5996 4.72905 22.5551 4.71965 22.5105 4.71031C22.3911 4.68533 22.2716 4.66091 22.152 4.63675C22.1306 4.63243 22.1092 4.62809 22.0879 4.62374C22.0172 4.60936 21.9464 4.5954 21.8756 4.58175C21.8651 4.57971 21.8546 4.57767 21.8438 4.57556C21.6787 4.54381 21.513 4.51868 21.3466 4.49555C21.3122 4.49075 21.2778 4.48587 21.2435 4.48097C21.232 4.47934 21.2206 4.47771 21.2088 4.47604C21.1856 4.47273 21.1624 4.46942 21.1392 4.4661C21.0699 4.45627 21.0007 4.44697 20.9313 4.43803C20.8875 4.43227 20.8437 4.42604 20.7999 4.41971C20.7794 4.41683 20.7588 4.41415 20.7382 4.41168C20.6377 4.39954 20.5595 4.38911 20.4878 4.30799C20.4724 4.28697 20.4573 4.26565 20.4429 4.24389C20.4326 4.23117 20.4223 4.21844 20.4117 4.20533C20.4037 4.19496 20.3957 4.18459 20.3874 4.17391C20.3385 4.1117 20.2871 4.05242 20.2345 3.99352C20.21 3.96602 20.186 3.93824 20.1623 3.91006C20.1195 3.85927 20.0752 3.80983 20.0309 3.76038C19.9978 3.72333 19.9652 3.68593 19.9333 3.64781C19.8999 3.60807 19.8645 3.57108 19.8281 3.53429C19.8063 3.51153 19.7862 3.48807 19.7661 3.46378C19.7126 3.40048 19.6553 3.34138 19.5976 3.28215C19.5863 3.27051 19.575 3.25887 19.5634 3.24688C19.5396 3.22241 19.5159 3.19795 19.4921 3.17351C19.4618 3.14246 19.4316 3.11135 19.4015 3.08023C19.3723 3.05017 19.3431 3.02016 19.3139 2.99014C19.3032 2.97911 19.2925 2.96807 19.2815 2.9567C19.2268 2.90062 19.1713 2.8464 19.1126 2.79474C19.0879 2.77273 19.065 2.74933 19.0423 2.72513C19.0032 2.68437 18.9627 2.64638 18.9205 2.60905C18.8855 2.57756 18.8513 2.54519 18.8171 2.51277C18.718 2.41889 18.616 2.32863 18.5136 2.23851C18.4827 2.21133 18.4519 2.18407 18.4212 2.15676C18.3487 2.09249 18.276 2.02896 18.201 1.96797C18.1745 1.94631 18.1483 1.92446 18.1221 1.90241C18.0278 1.82288 17.9326 1.74498 17.8355 1.66912C17.7793 1.62523 17.7235 1.58083 17.668 1.53604C17.5774 1.46297 17.4857 1.39213 17.3917 1.32387C17.345 1.28994 17.299 1.25544 17.2539 1.21925C17.2539 1.215 17.2539 1.21075 17.2539 1.20638Z" fill="black"/>
<path d="M27.9882 8.87068C28.0189 8.89944 28.0373 8.9276 28.0563 8.96545C28.0621 8.97685 28.0678 8.98825 28.0738 8.99999C28.0831 9.01867 28.0831 9.01867 28.0926 9.03772C28.1024 9.05741 28.1024 9.05741 28.1125 9.07751C28.1339 9.12041 28.1552 9.16338 28.1765 9.20637C28.1871 9.22761 28.1871 9.22761 28.1979 9.24929C28.5357 9.92829 28.8066 10.6365 29.0345 11.3618C29.0425 11.3874 29.0506 11.4129 29.0586 11.4385C29.1243 11.6476 29.1814 11.8579 29.2333 12.0709C29.2485 12.1329 29.2647 12.1943 29.282 12.2556C29.3043 12.3351 29.3239 12.4148 29.3417 12.4954C29.3449 12.5095 29.348 12.5236 29.3512 12.5381C29.4441 12.9605 29.5253 13.3846 29.5701 13.8156C29.5047 13.7716 29.4413 13.7268 29.3802 13.6768C28.673 13.1096 27.8055 12.7412 26.9713 12.4212C26.9592 12.4166 26.9592 12.4166 26.947 12.4119C26.5513 12.2599 26.1472 12.1267 25.7409 12.008C25.7218 12.0024 25.7218 12.0024 25.7023 11.9967C25.6242 11.974 25.546 11.9515 25.4678 11.9293C25.4255 11.9172 25.3833 11.905 25.341 11.8927C25.1365 11.8336 24.9311 11.7802 24.7244 11.7297C24.6688 11.7161 24.6133 11.7022 24.5578 11.6881C24.3129 11.6262 24.0667 11.5713 23.82 11.5174C23.8117 11.4791 23.8035 11.4407 23.7949 11.4012C23.8837 11.3695 23.9732 11.3441 24.0641 11.3197C24.1797 11.2883 24.2935 11.2539 24.4064 11.2135C24.448 11.1986 24.4899 11.1853 24.5321 11.1722C25.0315 11.0151 25.5162 10.8213 25.992 10.6007C26.0039 10.5952 26.0159 10.5897 26.0282 10.584C26.1801 10.5133 26.3265 10.4332 26.472 10.3496C26.4949 10.3364 26.5178 10.3233 26.5408 10.3103C27.1516 9.96366 27.662 9.5102 27.9882 8.87068Z" fill="black"/>
<path d="M29.5597 17.9281C29.5728 17.9685 29.572 17.9832 29.5655 18.024C29.5637 18.0356 29.5619 18.0472 29.56 18.0591C29.5579 18.0717 29.5559 18.0843 29.5537 18.0972C29.5517 18.1103 29.5496 18.1234 29.5474 18.1368C29.5406 18.1794 29.5337 18.222 29.5267 18.2646C29.522 18.294 29.5172 18.3234 29.5124 18.3529C29.499 18.4351 29.4854 18.5173 29.4717 18.5995C29.4702 18.6089 29.4686 18.6182 29.467 18.6279C29.432 18.8385 29.3851 19.0465 29.339 19.2547C29.3345 19.275 29.3345 19.275 29.3299 19.2957C29.3001 19.4299 29.2698 19.5636 29.2317 19.6957C29.2201 19.7365 29.2093 19.7774 29.1988 19.8186C29.1617 19.9634 29.1232 20.1068 29.0752 20.2483C29.0605 20.292 29.0472 20.336 29.0342 20.3803C29.0056 20.4762 28.9743 20.5711 28.9425 20.666C28.9328 20.6949 28.9232 20.7239 28.9136 20.7529C28.8714 20.8795 28.8269 21.0051 28.7804 21.13C28.7758 21.1423 28.7758 21.1423 28.7711 21.1548C28.6035 21.6047 28.4199 22.0517 28.2052 22.4802C28.1891 22.5124 28.1731 22.5448 28.1571 22.5771C28.1411 22.6093 28.125 22.6415 28.1089 22.6737C28.1009 22.6898 28.0929 22.7059 28.0849 22.722C28.0737 22.7446 28.0623 22.7672 28.051 22.7898C28.0411 22.8097 28.0411 22.8097 28.031 22.8299C28.0136 22.8601 28.0136 22.8601 27.9884 22.873C27.9774 22.8503 27.9774 22.8503 27.9662 22.8271C27.7867 22.4623 27.5261 22.1402 27.2091 21.8918C27.1978 21.8824 27.1866 21.8731 27.175 21.8635C26.5031 21.3138 25.6778 20.9697 24.8713 20.6871C24.8462 20.6783 24.8211 20.6694 24.796 20.6606C24.5451 20.5724 24.2927 20.489 24.0359 20.4206C24.0208 20.4166 24.0056 20.4125 23.99 20.4083C23.9609 20.4006 23.9317 20.393 23.9025 20.3856C23.8896 20.3822 23.8766 20.3788 23.8633 20.3753C23.8518 20.3724 23.8403 20.3694 23.8285 20.3664C23.8199 20.3628 23.8113 20.3591 23.8025 20.3554C23.786 20.3045 23.7994 20.2763 23.815 20.2263C24.0753 20.1618 24.0753 20.1618 24.2045 20.1339C24.4087 20.0897 24.612 20.0428 24.8146 19.9916C24.8537 19.9817 24.8929 19.972 24.932 19.9622C25.0776 19.9257 25.222 19.8863 25.3659 19.8433C25.4392 19.8214 25.5129 19.8015 25.5867 19.7816C25.7229 19.7445 25.8571 19.7024 25.991 19.6573C26.0348 19.6428 26.0788 19.6288 26.1227 19.6148C26.3099 19.555 26.4955 19.4904 26.6811 19.4258C26.6897 19.4228 26.6982 19.4198 26.7071 19.4168C27.6927 19.0729 28.6834 18.626 29.5094 17.9668C29.5262 17.9539 29.5429 17.941 29.5597 17.9281Z" fill="black"/>
<path d="M2.7002 8.87068C2.73743 8.90667 2.75469 8.94225 2.77631 8.99011C2.8483 9.1437 2.94418 9.28347 3.05173 9.41294C3.05988 9.42276 3.06804 9.43258 3.07644 9.4427C3.20315 9.59099 3.33912 9.7312 3.49114 9.85191C3.50242 9.8613 3.5137 9.87069 3.52532 9.88036C3.9378 10.2179 4.41679 10.4774 4.90062 10.6888C4.93486 10.704 4.96871 10.7199 5.00256 10.736C5.08011 10.7725 5.15915 10.8046 5.2386 10.8364C5.24627 10.8394 5.25394 10.8425 5.26185 10.8457C5.30134 10.8615 5.34086 10.8773 5.38039 10.893C5.4188 10.9083 5.45715 10.9238 5.49548 10.9393C5.87026 11.0892 6.25738 11.2081 6.64366 11.3222C6.73124 11.3481 6.81861 11.3747 6.90602 11.4012C6.89773 11.4396 6.88945 11.4779 6.88091 11.5174C6.82338 11.5309 6.76583 11.5444 6.70828 11.5578C6.69957 11.5598 6.69086 11.5618 6.68189 11.5639C6.54218 11.5965 6.40229 11.6279 6.26201 11.6578C6.17408 11.6768 6.08755 11.6993 6.00084 11.7235C5.92546 11.7444 5.84947 11.7626 5.77354 11.7812C5.6292 11.8167 5.48551 11.8535 5.34289 11.8956C5.30486 11.9067 5.26673 11.9174 5.22859 11.928C5.02474 11.985 4.82231 12.0453 4.62106 12.1113C4.61149 12.1145 4.60192 12.1176 4.59206 12.1208C3.85346 12.3634 3.12881 12.6346 2.43397 12.9906C2.41889 12.9984 2.4038 13.0061 2.38872 13.0138C1.98289 13.2208 1.59204 13.4613 1.23311 13.7464C1.19989 13.772 1.16692 13.7945 1.13086 13.8156C1.13801 13.7241 1.14817 13.6338 1.16264 13.5432C1.16549 13.5251 1.16549 13.5251 1.16841 13.5066C1.17464 13.4673 1.18098 13.428 1.18736 13.3887C1.18955 13.3752 1.19173 13.3616 1.19399 13.3476C1.33832 12.4594 1.56795 11.5847 1.87518 10.7416C1.88437 10.7163 1.8935 10.691 1.90261 10.6657C1.9456 10.5467 1.99057 10.4286 2.03715 10.3111C2.04066 10.3022 2.04417 10.2933 2.04778 10.2842C2.11567 10.1128 2.18653 9.943 2.26078 9.77445C2.26685 9.76063 2.27293 9.74681 2.27918 9.73257C2.36162 9.54567 2.44801 9.361 2.53699 9.17732C2.54155 9.16787 2.54611 9.15842 2.5508 9.14869C2.59685 9.05344 2.64293 8.95948 2.7002 8.87068Z" fill="black"/>
<path d="M1.13086 17.9281C1.1958 17.971 1.25772 18.0162 1.3184 18.0653C1.64973 18.3313 2.02874 18.5401 2.40186 18.7362C2.43131 18.7517 2.46069 18.7673 2.49005 18.783C2.62858 18.8563 2.77157 18.9193 2.91443 18.9831C2.94925 18.9988 2.98383 19.015 3.01838 19.0314C3.10253 19.0709 3.18807 19.1068 3.27379 19.1426C3.28679 19.148 3.28679 19.148 3.30006 19.1535C3.63457 19.2927 3.97266 19.418 4.31594 19.5323C4.34464 19.5419 4.37333 19.5515 4.40202 19.5611C5.21451 19.8331 6.04541 20.0438 6.88091 20.2263C6.8892 20.2646 6.89748 20.303 6.90602 20.3425C6.83454 20.3678 6.76204 20.3893 6.68945 20.4111C6.67731 20.4147 6.66517 20.4184 6.65267 20.4221C6.59415 20.4397 6.5356 20.457 6.47676 20.4734C6.34361 20.5106 6.21276 20.5527 6.08212 20.5983C6.05211 20.6087 6.0221 20.6191 5.9921 20.6295C5.97234 20.6363 5.95259 20.6432 5.93285 20.65C5.87936 20.6686 5.82578 20.6868 5.77198 20.7044C5.02669 20.9493 4.27309 21.297 3.6418 21.7756C3.63449 21.7811 3.62719 21.7866 3.61966 21.7924C3.57187 21.8288 3.52494 21.8663 3.47859 21.9047C3.47185 21.9103 3.46512 21.9158 3.45819 21.9216C3.1374 22.19 2.90278 22.4972 2.71275 22.873C2.6745 22.8391 2.65526 22.7994 2.63222 22.7536C2.62812 22.7455 2.62402 22.7374 2.6198 22.729C2.60622 22.702 2.59278 22.6749 2.57936 22.6479C2.57468 22.6385 2.57 22.6291 2.56518 22.6194C2.1002 21.6848 1.73158 20.701 1.46486 19.6584C1.45029 19.6015 1.43478 19.5449 1.41873 19.4884C1.39311 19.397 1.37215 19.3048 1.35214 19.2119C1.35027 19.2033 1.34841 19.1947 1.34649 19.1858C1.3368 19.141 1.32717 19.0961 1.31762 19.0513C1.31073 19.0189 1.30375 18.9865 1.29671 18.9542C1.24025 18.6944 1.19999 18.4326 1.16122 18.1696C1.1596 18.1587 1.15798 18.1478 1.15631 18.1365C1.14622 18.0672 1.13802 17.9978 1.13086 17.9281Z" fill="black"/>
<path d="M14.8392 1.47061C14.8392 2.31617 14.8392 3.16172 14.8392 4.0329C14.172 4.05069 14.172 4.05069 13.964 4.05612C13.6735 4.06394 13.3837 4.07299 13.0939 4.09499C13.0311 4.0993 12.9683 4.10172 12.9055 4.10407C12.5884 4.11688 12.2724 4.14385 11.9562 4.17109C11.943 4.17222 11.9298 4.17334 11.9162 4.1745C11.8913 4.17662 11.8664 4.17877 11.8416 4.18096C11.7805 4.18614 11.7204 4.18931 11.6592 4.18819C11.6765 4.14781 11.6965 4.12036 11.7266 4.08922C11.7352 4.08019 11.7439 4.07116 11.7528 4.06185C11.7669 4.0474 11.7669 4.0474 11.7813 4.03265C11.7909 4.02259 11.8006 4.01254 11.8106 4.00218C11.8312 3.98091 11.8517 3.95967 11.8723 3.93845C11.9036 3.90624 11.9348 3.87392 11.9659 3.84159C11.9859 3.82088 12.006 3.80018 12.026 3.77949C12.0352 3.76993 12.0444 3.76037 12.0539 3.75052C12.1049 3.69809 12.157 3.64775 12.2115 3.59927C12.2408 3.57271 12.268 3.54421 12.2952 3.51526C12.3382 3.47017 12.382 3.4275 12.4284 3.38631C12.4594 3.35806 12.4895 3.32893 12.5195 3.29963C12.5894 3.23152 12.6604 3.16651 12.7353 3.10429C12.7727 3.07218 12.8084 3.03841 12.8439 3.0041C12.9 2.95006 12.9576 2.8987 13.0172 2.84886C13.0558 2.81655 13.094 2.78382 13.1322 2.75101C13.2267 2.66978 13.3222 2.58995 13.4192 2.51177C13.4445 2.49133 13.4697 2.47078 13.4949 2.45022C13.6293 2.34087 13.7658 2.23484 13.9039 2.13059C13.9134 2.1234 13.9229 2.11621 13.9327 2.1088C13.961 2.08746 13.9893 2.06615 14.0177 2.04486C14.0257 2.03884 14.0337 2.03282 14.042 2.02661C14.0707 2.0051 14.0995 1.98372 14.1284 1.96236C14.1354 1.95712 14.1425 1.95187 14.1498 1.94646C14.286 1.84551 14.4241 1.74778 14.5635 1.65161C14.5967 1.62866 14.6299 1.60565 14.6631 1.58263C14.6842 1.568 14.7054 1.55338 14.7265 1.53875C14.7365 1.53188 14.7464 1.52501 14.7566 1.51793C14.7702 1.50857 14.7702 1.50857 14.784 1.49903C14.792 1.49352 14.8 1.48802 14.8082 1.48234C14.8267 1.47061 14.8267 1.47061 14.8392 1.47061Z" fill="black"/>
<path d="M19.0423 27.5543C18.9921 27.6275 18.9379 27.6922 18.8764 27.7553C18.8679 27.7642 18.8594 27.773 18.8506 27.7821C18.8327 27.8006 18.8148 27.8191 18.7968 27.8376C18.7696 27.8656 18.7425 27.8937 18.7154 27.9218C18.6979 27.9399 18.6803 27.958 18.6628 27.9761C18.6548 27.9844 18.6469 27.9927 18.6386 28.0012C18.5908 28.0504 18.5415 28.0972 18.4904 28.1428C18.461 28.1695 18.4336 28.1981 18.4063 28.2272C18.3633 28.2723 18.3195 28.315 18.2731 28.3562C18.2421 28.3844 18.212 28.4136 18.182 28.4429C18.1121 28.511 18.0411 28.576 17.9662 28.6382C17.9288 28.6703 17.8931 28.7041 17.8576 28.7384C17.8015 28.7925 17.7439 28.8438 17.6843 28.8937C17.6457 28.926 17.6075 28.9587 17.5693 28.9915C17.4747 29.0728 17.3793 29.1526 17.2823 29.2308C17.257 29.2512 17.2318 29.2718 17.2066 29.2923C17.0722 29.4017 16.9357 29.5077 16.7976 29.612C16.7881 29.6192 16.7786 29.6263 16.7687 29.6338C16.7405 29.6551 16.7121 29.6764 16.6838 29.6977C16.6758 29.7037 16.6678 29.7097 16.6595 29.716C16.6308 29.7375 16.602 29.7588 16.5731 29.7802C16.5625 29.7881 16.5625 29.7881 16.5517 29.7961C16.4155 29.8971 16.2774 29.9948 16.138 30.091C16.1048 30.1139 16.0716 30.1369 16.0384 30.1599C16.0172 30.1746 15.9961 30.1892 15.9749 30.2038C15.965 30.2107 15.9551 30.2176 15.9449 30.2247C15.9359 30.2309 15.9268 30.2371 15.9175 30.2435C15.9095 30.2491 15.9015 30.2546 15.8933 30.2602C15.8748 30.272 15.8748 30.272 15.8623 30.272C15.8623 29.4264 15.8623 28.5808 15.8623 27.7096C16.2162 27.701 16.5701 27.6925 16.9348 27.6837C17.4246 27.6637 17.9121 27.6324 18.4008 27.594C18.4168 27.5927 18.4168 27.5927 18.4331 27.5915C18.4831 27.5875 18.5331 27.5836 18.5831 27.5795C18.6744 27.5722 18.7657 27.5655 18.8571 27.5597C18.8656 27.5591 18.8742 27.5586 18.883 27.558C18.9362 27.5548 18.989 27.5538 19.0423 27.5543Z" fill="black"/>
<path d="M11.6592 27.5542C11.8444 27.5627 12.0294 27.5752 12.2143 27.5887C12.2791 27.5935 12.3439 27.5981 12.4087 27.6028C12.5028 27.6095 12.5968 27.6163 12.6909 27.6232C13.4065 27.6752 14.122 27.6957 14.8392 27.7095C14.8392 28.5551 14.8392 29.4007 14.8392 30.272C14.7723 30.2334 14.7107 30.1977 14.6484 30.1535C14.6414 30.1486 14.6345 30.1438 14.6274 30.1388C14.6052 30.1231 14.5831 30.1073 14.5609 30.0916C14.5454 30.0806 14.5298 30.0695 14.5142 30.0585C14.3848 29.9668 14.2561 29.8743 14.1284 29.7802C14.1191 29.7734 14.1098 29.7665 14.1003 29.7595C13.9664 29.6607 13.8352 29.5584 13.7048 29.4547C13.658 29.4174 13.6109 29.3807 13.5635 29.3443C13.4762 29.2772 13.3917 29.2072 13.3082 29.135C13.2521 29.0866 13.1953 29.0395 13.1377 28.9931C13.0765 28.9438 13.0184 28.8922 12.9614 28.8377C12.9295 28.808 12.8967 28.78 12.8634 28.7521C12.8031 28.7015 12.7457 28.6483 12.6886 28.5938C12.6619 28.5685 12.635 28.5437 12.6077 28.5192C12.5464 28.4638 12.4868 28.4065 12.4271 28.3494C12.4076 28.3309 12.3881 28.3124 12.3685 28.294C12.3021 28.2314 12.237 28.168 12.1746 28.1012C12.151 28.0774 12.1271 28.0553 12.1022 28.0332C12.0349 27.9725 11.9721 27.9072 11.9092 27.8419C11.8883 27.8203 11.8674 27.7988 11.8465 27.7774C11.833 27.7634 11.8195 27.7494 11.806 27.7354C11.7999 27.7291 11.7938 27.7229 11.7875 27.7164C11.7394 27.6662 11.699 27.6115 11.6592 27.5542Z" fill="black"/>
<path d="M15.8623 1.47061C15.9291 1.50914 15.9907 1.54493 16.0531 1.58905C16.06 1.59393 16.0669 1.5988 16.0741 1.60382C16.0963 1.61949 16.1184 1.63523 16.1406 1.65098C16.1561 1.662 16.1717 1.67302 16.1873 1.68404C16.3166 1.77571 16.4454 1.86825 16.5731 1.96237C16.5824 1.96919 16.5917 1.97601 16.6012 1.98304C16.7351 2.08185 16.8663 2.18413 16.9966 2.28786C17.0435 2.32508 17.0906 2.36178 17.138 2.39819C17.2253 2.46532 17.3098 2.53531 17.3933 2.60746C17.4494 2.65584 17.5061 2.70301 17.5638 2.74934C17.625 2.79866 17.683 2.85031 17.7401 2.90478C17.772 2.93448 17.8048 2.96247 17.8381 2.99036C17.8984 3.04098 17.9558 3.09418 18.0129 3.14864C18.0395 3.17395 18.0664 3.19877 18.0938 3.2233C18.1551 3.27862 18.2146 3.3359 18.2744 3.39301C18.2939 3.41156 18.3134 3.43002 18.333 3.44845C18.3994 3.51103 18.4645 3.57437 18.5269 3.64125C18.5505 3.66504 18.5743 3.6871 18.5993 3.70924C18.6666 3.76989 18.7293 3.83516 18.7923 3.90053C18.8131 3.92209 18.834 3.94355 18.8549 3.965C18.9232 4.0355 18.9873 4.10575 19.0423 4.18821C18.9573 4.18954 18.8744 4.18435 18.7898 4.17633C18.7607 4.1737 18.7315 4.17108 18.7024 4.16848C18.6868 4.16708 18.6712 4.16569 18.6551 4.16425C18.302 4.13308 17.9485 4.11018 17.5946 4.09078C17.559 4.08881 17.5235 4.08677 17.4879 4.08472C16.9462 4.05378 16.4051 4.04601 15.8623 4.03292C15.8623 3.18736 15.8623 2.34179 15.8623 1.47061Z" fill="black"/>
<path d="M5.4574 5.13399C5.46561 5.13805 5.47383 5.14211 5.48229 5.1463C5.4759 5.15256 5.4695 5.15883 5.46292 5.16529C5.4028 5.22427 5.34273 5.28331 5.28273 5.34242C5.25188 5.37281 5.22101 5.40317 5.19009 5.43349C5.15456 5.46831 5.11914 5.50323 5.08372 5.53816C5.07256 5.54907 5.0614 5.55999 5.0499 5.57123C5.03458 5.58638 5.03458 5.58638 5.01895 5.60184C5.00989 5.61075 5.00083 5.61966 4.99149 5.62884C4.9694 5.64918 4.9694 5.64918 4.97212 5.67558C4.94748 5.6837 4.92284 5.69183 4.89746 5.7002C4.95658 5.62983 5.01998 5.56508 5.08557 5.50061C5.09623 5.49008 5.1069 5.47954 5.11789 5.46869C5.1517 5.43531 5.18556 5.40197 5.21943 5.36863C5.24247 5.34589 5.26551 5.32316 5.28854 5.30042C5.3448 5.24491 5.40109 5.18944 5.4574 5.13399Z" fill="black"/>
<path d="M143.125 7.40851C143.178 7.41801 143.178 7.41801 143.232 7.4277C144.915 7.73388 146.396 8.47641 147.631 9.69913C147.659 9.72714 147.688 9.75514 147.717 9.78399C148.938 11.01 149.694 12.7427 150.039 14.4445C150.057 14.5313 150.075 14.6179 150.094 14.7046C150.164 15.0355 150.214 15.3669 150.254 15.7031C150.258 15.7382 150.262 15.7733 150.266 15.8094C150.355 16.6146 150.334 17.4026 150.334 18.2174C145.782 18.2174 141.23 18.2174 136.54 18.2174C136.646 18.9789 136.759 19.6565 137.025 20.3648C137.035 20.3904 137.045 20.4159 137.055 20.4422C137.535 21.6922 138.429 22.7442 139.625 23.2997C140.095 23.5096 140.566 23.641 141.072 23.7175C141.136 23.7271 141.199 23.7383 141.263 23.7499C142.565 23.9017 143.93 23.6184 144.976 22.7767C145.612 22.2478 145.937 21.5859 146.279 20.8301C147.594 20.8301 148.909 20.8301 150.265 20.8301C149.939 22.1752 149.416 23.4258 148.532 24.4808C148.508 24.5088 148.485 24.5367 148.461 24.5655C148.382 24.6583 148.302 24.7487 148.22 24.8387C148.193 24.8686 148.193 24.8686 148.165 24.8991C146.641 26.5606 144.437 27.3193 142.258 27.3844C141.581 27.4016 140.919 27.3745 140.249 27.2725C140.221 27.2685 140.194 27.2645 140.165 27.2603C138.302 26.9824 136.609 26.0923 135.238 24.7738C135.216 24.7524 135.194 24.731 135.171 24.709C135.016 24.5579 134.876 24.3975 134.738 24.2303C134.71 24.1971 134.682 24.1639 134.653 24.1297C133.511 22.7441 132.788 20.9833 132.555 19.1837C132.55 19.1461 132.544 19.1085 132.539 19.0697C132.387 17.9141 132.369 16.6851 132.555 15.5331C132.562 15.4891 132.569 15.4452 132.576 15.3999C132.834 13.8413 133.32 12.2995 134.253 11.0234C134.282 10.9833 134.31 10.9432 134.339 10.9032C134.733 10.3583 135.166 9.84337 135.683 9.41909C135.746 9.36775 135.807 9.31548 135.868 9.26223C136.287 8.89708 136.749 8.6019 137.233 8.33907C137.259 8.32487 137.285 8.31067 137.312 8.29603C137.693 8.09033 138.084 7.92887 138.492 7.78879C138.534 7.7743 138.576 7.75982 138.619 7.7449C139.112 7.58007 139.608 7.45702 140.121 7.38167C140.147 7.37782 140.173 7.37398 140.2 7.37002C141.158 7.23298 142.173 7.22848 143.125 7.40851Z" fill="white"/>
<path d="M163.663 7.29099C163.687 7.29109 163.711 7.29118 163.735 7.29129C164.146 7.29326 164.551 7.3151 164.958 7.37152C164.996 7.37641 164.996 7.37641 165.035 7.38141C166.319 7.54909 167.588 8.11584 168.597 8.94632C168.627 8.97072 168.658 8.99513 168.689 9.02028C169.066 9.33007 169.437 9.66864 169.741 10.0558C169.774 10.0969 169.808 10.138 169.842 10.179C171.004 11.608 171.686 13.4194 171.935 15.2561C171.946 15.3373 171.957 15.4185 171.968 15.4996C172.049 16.0795 172.071 16.651 172.071 17.2364C172.071 17.2926 172.071 17.2926 172.071 17.3499C172.071 17.933 172.046 18.4983 171.959 19.0752C171.95 19.1389 171.95 19.1389 171.941 19.2039C171.667 21.1592 170.994 23.0373 169.741 24.5512C169.718 24.5788 169.695 24.6065 169.671 24.6349C169.252 25.1278 168.804 25.5686 168.285 25.947C168.265 25.9616 168.245 25.9762 168.225 25.9912C166.558 27.1978 164.389 27.6411 162.392 27.2909C160.912 27.0074 159.637 26.3751 158.546 25.3028C158.518 25.2754 158.489 25.2481 158.459 25.2199C158.187 24.9526 157.884 24.6151 157.715 24.2649C157.703 27.4774 157.692 30.69 157.68 34C156.319 34 154.958 34 153.556 34C153.556 25.378 153.556 16.7559 153.556 7.87259C154.642 7.87259 155.729 7.87259 156.848 7.87259C156.892 8.00803 156.902 8.14295 156.915 8.28419C156.934 8.46453 156.953 8.64304 156.987 8.82105C157.025 9.02127 157.044 9.22265 157.065 9.42544C157.083 9.60202 157.109 9.77454 157.143 9.94875C157.171 10.1232 157.187 10.2993 157.202 10.4753C157.216 10.6218 157.236 10.7444 157.299 10.879C157.319 10.8461 157.34 10.8131 157.361 10.7792C157.855 9.99626 158.45 9.26035 159.205 8.73157C159.227 8.71603 159.249 8.70049 159.271 8.68447C160.248 7.99666 161.335 7.54195 162.511 7.38399C162.58 7.37446 162.649 7.36402 162.717 7.35317C163.035 7.30499 163.342 7.28866 163.663 7.29099Z" fill="white"/>
<path d="M83.5101 7.80256C83.555 7.81658 83.555 7.81658 83.6008 7.83088C84.5631 8.13728 85.471 8.64523 86.248 9.30578C86.2669 9.32161 86.2857 9.33745 86.3052 9.35377C86.7794 9.75406 87.2296 10.1964 87.5997 10.7016C87.6144 10.7215 87.6292 10.7413 87.6444 10.7618C87.8692 11.0651 88.0713 11.3766 88.2551 11.708C88.2924 11.7746 88.3307 11.8404 88.3693 11.9062C89.2361 13.4083 89.5986 15.249 89.5868 16.98C89.586 17.1081 89.5861 17.2362 89.5863 17.3643C89.5855 18.0698 89.5535 18.7746 89.4343 19.4704C89.4272 19.5127 89.42 19.5551 89.4126 19.5987C89.2832 20.3198 89.0888 21.0492 88.8127 21.7252C88.8041 21.7471 88.7954 21.7689 88.7865 21.7914C88.3679 22.8504 87.777 23.7996 87.0105 24.6243C86.992 24.6444 86.9734 24.6646 86.9543 24.6853C86.6857 24.9755 86.4069 25.2372 86.0949 25.4768C86.0459 25.5146 85.9975 25.5532 85.9493 25.5919C85.2111 26.1711 84.3569 26.5928 83.4755 26.8791C83.4457 26.8889 83.416 26.8986 83.3854 26.9086C82.9016 27.0657 82.4242 27.1957 81.9199 27.2575C81.8111 27.2695 81.8111 27.2695 81.7079 27.3086C80.7482 27.4267 79.7554 27.4231 78.7967 27.3086C78.7511 27.3037 78.7511 27.3037 78.7046 27.2987C76.918 27.1057 75.1348 26.3379 73.8188 25.0615C73.7484 24.9935 73.6765 24.9295 73.6025 24.8659C72.5961 23.9557 71.9002 22.6644 71.4459 21.3834C71.4195 21.3091 71.3922 21.2353 71.3644 21.1617C71.1642 20.6167 71.0405 20.0446 70.9382 19.4726C70.9313 19.4353 70.9244 19.3979 70.9173 19.3594C70.7987 18.6639 70.7787 17.9583 70.7799 17.2537C70.7801 17.1285 70.7792 17.0034 70.7784 16.8783C70.7761 16.0641 70.8702 15.2809 71.0461 14.4878C71.0667 14.3946 71.0862 14.3013 71.1056 14.2079C71.5066 12.3521 72.5993 10.549 74.0487 9.37736C74.0828 9.34908 74.1169 9.32079 74.1521 9.29166C74.8823 8.69195 75.7036 8.24015 76.5787 7.90993C76.603 7.90045 76.6274 7.89098 76.6525 7.88122C77.4627 7.56794 78.3177 7.40609 79.178 7.33727C79.219 7.33395 79.2601 7.33063 79.3024 7.32721C80.7344 7.21958 82.1365 7.36795 83.5101 7.80256Z" fill="white"/>
<path d="M56.3573 1.24864C56.4084 1.24876 56.4084 1.24876 56.4606 1.24888C59.2191 1.25642 61.9073 1.93367 64.1054 3.72269C64.1385 3.74931 64.1717 3.77593 64.2058 3.80336C64.487 4.03452 64.7468 4.28968 65.0065 4.54588C65.0367 4.57555 65.0669 4.60522 65.098 4.63578C65.26 4.79868 65.405 4.97111 65.5459 5.15373C65.6267 5.25714 65.7099 5.358 65.7936 5.45897C65.9631 5.66695 66.112 5.88569 66.2562 6.11287C66.2954 6.17453 66.3349 6.23591 66.3745 6.29726C67.2681 7.68796 68.2296 9.74579 68.2296 11.4535C66.8228 11.4535 65.4161 11.4535 63.9667 11.4535C63.921 11.2646 63.8752 11.0756 63.8281 10.8809C63.7905 10.7481 63.7523 10.6165 63.7111 10.4849C63.6955 10.4348 63.6955 10.4348 63.6795 10.3836C63.5906 10.1023 63.4918 9.8281 63.3776 9.55662C63.3631 9.52161 63.3631 9.52161 63.3483 9.48589C62.5728 7.63026 61.1286 6.37726 59.3557 5.60969C58.7792 5.37952 58.1648 5.27499 57.5551 5.19012C57.5289 5.18635 57.5028 5.18258 57.4758 5.1787C55.4172 4.92285 53.2543 5.45421 51.6128 6.77107C51.4492 6.90485 51.2938 7.04493 51.1435 7.19442C51.125 7.21258 51.1066 7.23075 51.0875 7.24946C50.7996 7.53352 50.5425 7.82573 50.3118 8.16077C50.2849 8.19856 50.2581 8.23634 50.2305 8.27527C49.335 9.57314 48.8878 11.1391 48.7175 12.7062C48.7147 12.7303 48.7119 12.7544 48.709 12.7792C48.651 13.2798 48.6356 13.7749 48.6374 14.2788C48.6375 14.3363 48.6375 14.3363 48.6376 14.395C48.64 15.2843 48.715 16.1364 48.9034 17.0061C48.9243 17.1029 48.9437 17.2 48.963 17.2973C49.263 18.7602 49.9647 20.1493 50.9702 21.2245C51.0021 21.2596 51.034 21.2948 51.0658 21.33C51.6123 21.9241 52.275 22.3416 52.9845 22.6947C53.0286 22.717 53.0724 22.7399 53.116 22.7634C53.2925 22.8581 53.4717 22.9295 53.6605 22.9939C53.692 23.0046 53.7234 23.0154 53.7558 23.0264C54.5058 23.2756 55.3229 23.4484 56.1133 23.4495C56.1436 23.4496 56.1739 23.4498 56.2052 23.4499C56.2691 23.4501 56.333 23.4501 56.3969 23.4501C56.4923 23.4502 56.5877 23.4509 56.6831 23.4515C58.4938 23.4576 60.3241 22.871 61.6689 21.5863C61.7407 21.5183 61.8145 21.4542 61.8895 21.39C62.0615 21.2352 62.1968 21.0508 62.3378 20.8666C62.3599 20.8398 62.3819 20.8131 62.4046 20.7856C63.2517 19.7478 63.6235 18.465 63.9667 17.1801C65.3735 17.1801 66.7802 17.1801 68.2296 17.1801C68.1513 17.7053 68.1513 17.7053 68.1026 17.9177C68.0947 17.9524 68.0947 17.9524 68.0865 17.9878C68.0695 18.0616 68.0521 18.1354 68.0346 18.2091C68.0286 18.2347 68.0226 18.2603 68.0163 18.2867C67.9013 18.7725 67.766 19.2491 67.6058 19.7213C67.5897 19.7688 67.5897 19.7688 67.5733 19.8172C66.8683 21.8756 65.6312 23.7715 63.9321 25.0899C63.9131 25.1047 63.8942 25.1196 63.8746 25.1349C63.1524 25.6968 62.3465 26.1449 61.5061 26.4857C61.4773 26.4975 61.4485 26.5093 61.4188 26.5214C60.2883 26.9782 59.0795 27.262 57.867 27.3447C57.8421 27.3467 57.8171 27.3487 57.7914 27.3507C54.6189 27.5958 51.1522 26.9211 48.6742 24.7342C48.6073 24.6743 48.5411 24.6138 48.4749 24.553C48.4265 24.5098 48.3782 24.4665 48.3298 24.4233C48.2857 24.3831 48.2416 24.3428 48.1977 24.3025C48.1699 24.2772 48.1422 24.2518 48.1136 24.2257C46.0386 22.317 44.8502 19.4497 44.4893 16.6432C44.4847 16.6081 44.4847 16.6081 44.48 16.5723C44.2399 14.7326 44.2972 12.8822 44.628 11.0598C44.6337 11.0273 44.6395 10.9948 44.6454 10.9613C45.018 8.88001 45.94 6.84971 47.2966 5.2617C47.3196 5.23393 47.3427 5.20615 47.3664 5.17754C47.7548 4.71809 48.1772 4.27046 48.6482 3.90165C48.6926 3.86554 48.737 3.82937 48.7814 3.79316C49.1171 3.52114 49.4621 3.27176 49.8266 3.04266C49.8678 3.01672 49.8678 3.01672 49.9099 2.99025C51.5129 1.99256 53.3135 1.48977 55.1638 1.28891C55.1985 1.28511 55.2333 1.28132 55.2691 1.27741C55.6312 1.24327 55.9941 1.24752 56.3573 1.24864Z" fill="white"/>
<path d="M102.643 7.28664C102.687 7.28664 102.687 7.28664 102.732 7.28663C103.233 7.28767 103.713 7.33092 104.203 7.44323C104.229 7.44896 104.255 7.45469 104.283 7.4606C105.822 7.80161 107.186 8.70027 108.048 10.0743C108.303 10.4906 108.503 10.9211 108.674 11.3802C108.683 11.4041 108.692 11.4281 108.701 11.4527C109.095 12.5258 109.14 13.6528 109.136 14.7858C109.136 14.9481 109.136 15.1104 109.136 15.2728C109.136 15.553 109.136 15.8332 109.135 16.1134C109.135 16.5186 109.134 16.9237 109.134 17.3288C109.134 17.9864 109.133 18.6439 109.132 19.3014C109.131 19.9396 109.131 20.5778 109.13 21.216C109.13 21.2554 109.13 21.2948 109.13 21.3355C109.13 21.5333 109.13 21.7312 109.13 21.9291C109.129 23.5667 109.127 25.2043 109.124 26.8419C107.775 26.8419 106.425 26.8419 105.035 26.8419C105.034 26.268 105.034 26.268 105.033 25.6825C105.032 24.4567 105.029 23.231 105.027 22.0052C105.026 21.8147 105.026 21.6241 105.026 21.4335C105.026 21.3766 105.026 21.3766 105.025 21.3186C105.024 20.7052 105.023 20.0919 105.023 19.4785C105.022 18.8486 105.021 18.2187 105.019 17.5889C105.018 17.2006 105.018 16.8122 105.018 16.4239C105.017 16.1572 105.017 15.8905 105.016 15.6238C105.015 15.4702 105.015 15.3166 105.015 15.163C105.016 13.947 104.921 12.8621 104.06 11.9466C103.214 11.1235 102.056 10.9826 100.947 11.0169C99.7745 11.0772 98.6891 11.6533 97.8932 12.5323C97.6382 12.8372 97.4285 13.1955 97.2716 13.5635C97.2571 13.5974 97.2425 13.6313 97.2276 13.6662C96.9932 14.2519 96.92 14.8543 96.9195 15.4836C96.9194 15.5328 96.9192 15.5819 96.919 15.631C96.9185 15.7654 96.9183 15.8997 96.918 16.0341C96.9178 16.1792 96.9173 16.3243 96.9168 16.4695C96.9161 16.7207 96.9155 16.9719 96.9149 17.2232C96.9141 17.5864 96.9132 17.9496 96.9121 18.3128C96.9105 18.9022 96.909 19.4916 96.9076 20.0809C96.9062 20.6533 96.9048 21.2257 96.9032 21.7981C96.9032 21.8334 96.9031 21.8687 96.903 21.9051C96.9025 22.0822 96.902 22.2593 96.9015 22.4364C96.8976 23.9049 96.8939 25.3734 96.8903 26.8419C95.5408 26.8419 94.1912 26.8419 92.8008 26.8419C92.8008 20.5821 92.8008 14.3223 92.8008 7.87272C93.8873 7.87272 94.9738 7.87272 96.0932 7.87272C96.1281 7.98082 96.1402 8.07373 96.1516 8.18687C96.158 8.24884 96.158 8.24884 96.1645 8.31207C96.1732 8.39819 96.1818 8.48431 96.1905 8.57043C96.211 8.76865 96.2335 8.9652 96.2666 9.16161C96.3135 9.43974 96.3385 9.72008 96.3655 10.0009C96.3696 10.0419 96.3738 10.0828 96.3781 10.125C96.3816 10.1617 96.3852 10.1983 96.3888 10.236C96.4061 10.3488 96.4368 10.4499 96.4745 10.557C96.487 10.5389 96.4995 10.5207 96.5124 10.502C96.7793 10.1166 97.0493 9.74581 97.3755 9.41173C97.3919 9.39498 97.4082 9.37822 97.425 9.36096C98.7993 7.9685 100.741 7.28228 102.643 7.28664Z" fill="white"/>
<path d="M121.432 7.29084C121.466 7.29082 121.5 7.2908 121.535 7.29077C122.071 7.29138 122.594 7.313 123.124 7.40717C123.16 7.4135 123.196 7.41983 123.233 7.42635C124.158 7.59359 125.094 7.85539 125.931 8.30194C125.955 8.3148 125.98 8.32766 126.004 8.34091C126.725 8.72863 127.352 9.23117 127.941 9.80516C127.967 9.82984 127.992 9.85453 128.018 9.87996C129.269 11.1329 129.929 12.8903 130.188 14.6369C130.192 14.6658 130.196 14.6946 130.201 14.7244C130.224 14.8912 130.229 15.0372 130.229 15.2096C128.902 15.2096 127.575 15.2096 126.208 15.2096C126.14 14.9143 126.071 14.619 126 14.3148C125.722 13.526 125.382 12.8906 124.822 12.2747C124.795 12.243 124.795 12.243 124.768 12.2107C124.064 11.4142 122.854 11.0098 121.842 10.9505C120.476 10.8863 119.176 11.1939 118.131 12.145C118.074 12.1999 118.017 12.2551 117.96 12.3105C117.931 12.3377 117.903 12.3649 117.873 12.3929C117.184 13.0711 116.756 14.0245 116.504 14.9591C116.498 14.9838 116.491 15.0084 116.484 15.0339C116.286 15.77 116.252 16.5147 116.251 17.2743C116.251 17.3083 116.251 17.3423 116.251 17.3773C116.25 17.7717 116.264 18.1492 116.331 18.5382C116.342 18.6086 116.353 18.6791 116.363 18.7495C116.424 19.1275 116.488 19.499 116.608 19.8624C116.617 19.8894 116.626 19.9164 116.635 19.9442C117.094 21.3084 117.892 22.5174 119.17 23.1765C120.408 23.7908 121.869 23.9515 123.185 23.4907C123.677 23.3035 124.142 23.0377 124.545 22.6899C124.574 22.6655 124.603 22.641 124.634 22.6158C125.502 21.8568 125.924 20.7117 126.147 19.5927C126.174 19.4687 126.174 19.4687 126.208 19.3971C127.535 19.3971 128.862 19.3971 130.229 19.3971C129.981 21.4416 129.349 23.3581 127.928 24.8503C127.876 24.9049 127.825 24.9602 127.774 25.0158C126.533 26.3438 124.755 27.0389 123.02 27.3069C122.975 27.314 122.975 27.314 122.928 27.3212C122.306 27.4123 121.671 27.388 121.044 27.3785C121.011 27.3782 120.977 27.3779 120.942 27.3776C120.105 27.3676 119.246 27.1865 118.445 26.949C118.421 26.9419 118.396 26.9347 118.371 26.9273C117.18 26.5673 116.033 25.8987 115.13 25.0227C115.06 24.9552 114.988 24.8917 114.914 24.8284C114.34 24.3088 113.881 23.6487 113.489 22.9762C113.473 22.9482 113.456 22.9202 113.44 22.8913C112.843 21.8541 112.454 20.7008 112.256 19.5146C112.242 19.4341 112.225 19.3547 112.207 19.2749C111.938 18.0409 111.972 16.5943 112.172 15.3528C112.178 15.3157 112.184 15.2786 112.19 15.2403C112.495 13.4086 113.176 11.638 114.425 10.2704C114.465 10.2221 114.505 10.1736 114.544 10.125C114.661 9.98604 114.791 9.86473 114.925 9.74322C114.981 9.69191 115.037 9.63972 115.091 9.58636C115.512 9.17758 116.001 8.84239 116.504 8.55248C116.529 8.53805 116.554 8.52362 116.58 8.50875C118.07 7.65064 119.736 7.29194 121.432 7.29084Z" fill="white"/>
<path d="M215.128 7.58424C216.1 7.55996 217.045 7.63421 217.985 7.91004C218.013 7.91825 218.041 7.92647 218.07 7.93493C218.46 8.0505 218.833 8.19312 219.198 8.37532C219.222 8.38708 219.245 8.39883 219.27 8.41094C219.832 8.69435 220.331 9.0541 220.778 9.50676C220.823 9.55287 220.87 9.5979 220.917 9.64283C221.331 10.0487 221.642 10.5374 221.901 11.0596C221.912 11.0817 221.923 11.1038 221.935 11.1266C222.172 11.6085 222.329 12.1131 222.447 12.6389C222.454 12.6692 222.461 12.6994 222.468 12.7306C222.601 13.3513 222.605 13.9648 222.604 14.5975C222.604 14.7322 222.604 14.8668 222.604 15.0015C222.605 15.2342 222.605 15.4669 222.605 15.6997C222.605 16.0365 222.606 16.3733 222.606 16.7101C222.607 17.2572 222.608 17.8043 222.609 18.3514C222.609 18.3841 222.609 18.4167 222.609 18.4504C222.609 18.8152 222.61 19.18 222.61 19.5448C222.61 19.6773 222.61 19.8098 222.61 19.9423C222.61 19.9913 222.61 19.9913 222.61 20.0414C222.611 20.5869 222.612 21.1324 222.613 21.6779C222.614 22.0138 222.614 22.3498 222.614 22.6858C222.614 22.9158 222.614 23.1459 222.615 23.3759C222.615 23.5086 222.615 23.6412 222.615 23.7738C222.615 23.9177 222.615 24.0616 222.616 24.2055C222.616 24.2472 222.615 24.2889 222.615 24.3318C222.618 24.6699 222.672 24.981 222.906 25.2329C223.139 25.4217 223.414 25.4169 223.696 25.4231C223.733 25.4241 223.733 25.4241 223.771 25.4252C223.864 25.4276 223.956 25.4298 224.048 25.432C224.254 25.4371 224.461 25.4423 224.674 25.4476C224.674 25.9082 224.674 26.3689 224.674 26.8435C224.441 26.8459 224.208 26.8481 223.975 26.8494C223.896 26.8499 223.817 26.8506 223.738 26.8516C222.999 26.8601 222.292 26.8308 221.728 26.2708C221.438 25.9466 221.295 25.5892 221.208 25.1613C221.202 25.135 221.196 25.1087 221.19 25.0817C221.17 24.9618 221.168 24.8471 221.166 24.7255C221.166 24.7003 221.166 24.6751 221.165 24.6492C221.164 24.5665 221.163 24.4838 221.163 24.4011C221.162 24.3436 221.161 24.2861 221.16 24.2286C221.158 24.0775 221.157 23.9265 221.155 23.7755C221.153 23.6212 221.151 23.4669 221.149 23.3127C221.146 23.0102 221.142 22.7078 221.139 22.4054C221.121 22.4481 221.103 22.4909 221.084 22.5349C220.83 23.131 220.83 23.131 220.697 23.374C220.676 23.4132 220.676 23.4132 220.654 23.4532C219.748 25.0797 218.291 26.1953 216.554 26.7118C216.33 26.774 216.103 26.8216 215.875 26.8681C215.84 26.8753 215.805 26.8826 215.769 26.8901C215.191 27.0025 214.617 27.0359 214.03 27.0336C213.997 27.0336 213.965 27.0335 213.932 27.0335C213.417 27.0322 212.913 27.008 212.405 26.915C212.382 26.9108 212.358 26.9066 212.334 26.9023C212.194 26.8766 212.057 26.8435 211.92 26.8077C211.87 26.7955 211.819 26.7833 211.769 26.7712C210.48 26.4508 209.207 25.6978 208.491 24.5101C208.374 24.3042 208.273 24.0903 208.177 23.8728C208.16 23.8347 208.144 23.7967 208.126 23.7575C207.599 22.5002 207.545 20.9444 208.03 19.6636C208.238 19.1417 208.524 18.6946 208.905 18.2894C208.923 18.2684 208.941 18.2474 208.96 18.2258C209.669 17.4341 210.766 16.9962 211.747 16.7146C211.787 16.7031 211.787 16.7031 211.828 16.6913C212.672 16.4535 213.534 16.3222 214.4 16.2091C214.491 16.197 214.581 16.185 214.671 16.1729C215.091 16.117 215.51 16.0628 215.93 16.0103C215.981 16.0038 215.981 16.0038 216.033 15.9973C216.258 15.9695 216.482 15.947 216.707 15.9272C217.225 15.8808 217.741 15.8073 218.255 15.7285C218.33 15.7177 218.405 15.7082 218.479 15.6997C219.253 15.6093 220.358 15.4434 220.886 14.7794C221.038 14.5433 221.081 14.3183 221.078 14.0392C221.078 14.0094 221.078 13.9795 221.077 13.9488C221.055 12.622 220.568 11.4365 219.643 10.5061C218.768 9.70058 217.557 9.18593 216.391 9.09114C216.36 9.08819 216.328 9.08524 216.296 9.0822C215.986 9.05448 215.677 9.04671 215.366 9.04641C215.327 9.04635 215.327 9.04635 215.288 9.0463C214.873 9.04669 214.475 9.07497 214.069 9.16273C214.016 9.17323 213.963 9.18371 213.91 9.19418C212.549 9.47508 211.222 10.2235 210.438 11.436C210.412 11.4775 210.386 11.5191 210.36 11.5607C210.336 11.6004 210.311 11.6401 210.286 11.681C209.942 12.27 209.784 12.8996 209.633 13.565C209.129 13.565 208.626 13.565 208.108 13.565C208.31 11.895 209.03 10.3827 210.32 9.32071C210.719 9.00603 211.127 8.72185 211.573 8.4827C211.595 8.47072 211.617 8.45875 211.64 8.44642C212.489 7.98777 213.463 7.71738 214.415 7.62371C214.455 7.61975 214.495 7.61578 214.537 7.61169C214.734 7.59626 214.931 7.59012 215.128 7.58424Z" fill="white"/>
<path d="M176.74 1.39452C178.089 1.39452 179.439 1.39452 180.829 1.39452C180.829 3.53231 180.829 5.6701 180.829 7.87268C182.396 7.87268 183.963 7.87268 185.577 7.87268C185.577 9.05378 185.577 10.2349 185.577 11.4518C184.01 11.4518 182.444 11.4518 180.829 11.4518C180.832 13.1698 180.832 13.1698 180.837 14.8878C180.837 15.1198 180.838 15.3517 180.838 15.5836C180.839 15.6271 180.839 15.6271 180.839 15.6716C180.84 16.1401 180.841 16.6086 180.841 17.0771C180.842 17.5583 180.843 18.0395 180.845 18.5207C180.846 18.8174 180.846 19.114 180.847 19.4107C180.847 19.6144 180.847 19.8181 180.848 20.0219C180.849 20.1392 180.849 20.2566 180.849 20.3739C180.845 21.0386 180.845 21.0386 180.968 21.688C180.976 21.7176 180.985 21.7472 180.993 21.7777C181.014 21.8482 181.038 21.9167 181.063 21.9855C181.072 22.0095 181.081 22.0335 181.09 22.0583C181.17 22.264 181.269 22.4245 181.418 22.5828C181.442 22.6076 181.465 22.6325 181.489 22.6581C182.175 23.3398 183.159 23.2498 184.039 23.2538C184.629 23.2583 184.629 23.2583 185.231 23.2628C185.231 24.4439 185.231 25.625 185.231 26.8419C184.78 26.8434 184.33 26.8448 183.866 26.8464C183.726 26.847 183.586 26.8477 183.441 26.8483C182.536 26.8508 181.647 26.8372 180.76 26.6271C180.736 26.6215 180.712 26.6159 180.687 26.6101C179.743 26.3825 178.89 25.9316 178.195 25.2313C178.168 25.2053 178.141 25.1793 178.112 25.1524C177.51 24.5653 177.156 23.7536 176.941 22.9407C176.933 22.9104 176.925 22.8801 176.916 22.849C176.735 22.1288 176.725 21.3939 176.728 20.6549C176.728 20.5539 176.728 20.4529 176.728 20.352C176.728 20.1364 176.728 19.9208 176.729 19.7053C176.73 19.3936 176.73 19.0819 176.73 18.7702C176.73 18.2643 176.731 17.7584 176.732 17.2525C176.733 16.7617 176.734 16.2708 176.734 15.7799C176.734 15.7496 176.734 15.7192 176.734 15.6879C176.734 15.5356 176.734 15.3833 176.734 15.2309C176.736 13.9712 176.737 12.7115 176.74 11.4518C175.676 11.4518 174.612 11.4518 173.517 11.4518C173.517 10.2707 173.517 9.08957 173.517 7.87268C174.58 7.87268 175.644 7.87268 176.74 7.87268C176.74 5.73489 176.74 3.59709 176.74 1.39452Z" fill="white"/>
<path d="M83.3722 11.974C83.4309 12.0258 83.4894 12.078 83.5476 12.1306C83.5729 12.1523 83.5981 12.174 83.6241 12.1964C84.5181 12.9748 85.0038 14.1582 85.2697 15.3048C85.2767 15.3338 85.2837 15.3628 85.2909 15.3927C85.4178 15.9641 85.4308 16.5584 85.4282 17.1421C85.4278 17.2402 85.4282 17.3383 85.4286 17.4364C85.4289 17.8329 85.4038 18.2161 85.3498 18.6087C85.3431 18.6611 85.3364 18.7134 85.3297 18.7658C85.235 19.4928 85.0087 20.2086 84.6913 20.8636C84.6803 20.8869 84.6692 20.9103 84.6578 20.9344C84.4063 21.4628 84.0809 21.9083 83.6863 22.331C83.6611 22.3593 83.6359 22.3875 83.6099 22.4167C82.8592 23.2364 81.6968 23.7046 80.6191 23.77C80.497 23.7734 80.3752 23.7744 80.253 23.7738C80.2095 23.7736 80.1659 23.7735 80.121 23.7733C79.3959 23.764 78.6876 23.6416 78.0371 23.2973C78.0172 23.2871 77.9973 23.2768 77.9768 23.2662C76.6592 22.5833 75.7997 21.4022 75.3295 19.98C74.8763 18.5617 74.7534 16.8467 75.0912 15.3875C75.1029 15.3345 75.1029 15.3345 75.1149 15.2804C75.4321 13.8585 76.16 12.5033 77.3819 11.707C77.9926 11.3215 78.6452 11.0613 79.3541 10.9495C79.4153 10.9396 79.4153 10.9396 79.4777 10.9296C80.8337 10.7619 82.2977 11.0762 83.3722 11.974Z" fill="black"/>
<path d="M162.745 10.8684C162.789 10.8686 162.833 10.8688 162.878 10.869C163.234 10.8735 163.573 10.9044 163.919 10.987C163.943 10.9926 163.967 10.9981 163.992 11.0039C165.175 11.2895 166.202 12.1192 166.849 13.1694C167.179 13.721 167.423 14.2994 167.593 14.924C167.604 14.9631 167.615 15.0022 167.627 15.0426C168.169 17.0574 167.938 19.4598 166.947 21.2879C166.754 21.6308 166.533 21.9316 166.276 22.2254C166.252 22.2546 166.228 22.2839 166.204 22.3141C165.538 23.1276 164.45 23.6828 163.427 23.7924C162.097 23.8978 160.818 23.5846 159.788 22.676C158.714 21.6989 158.062 20.3458 157.819 18.8968C157.81 18.8444 157.801 18.792 157.791 18.7396C157.782 18.6862 157.772 18.6327 157.763 18.5791C157.759 18.5549 157.754 18.5306 157.75 18.5057C157.7 18.2133 157.675 17.9255 157.675 17.6286C157.675 17.5972 157.675 17.5658 157.675 17.5335C157.674 17.4674 157.674 17.4012 157.674 17.3351C157.674 17.2361 157.674 17.1372 157.673 17.0382C157.671 16.5071 157.706 15.9844 157.811 15.4631C157.816 15.4338 157.822 15.4045 157.828 15.3743C157.895 15.0497 157.992 14.7364 158.097 14.4229C158.109 14.3831 158.122 14.3432 158.135 14.3021C158.565 13.0421 159.502 11.9364 160.661 11.3449C161.332 11.036 162.009 10.8649 162.745 10.8684Z" fill="black"/>
<path d="M221.102 16.0688C221.104 16.3881 221.106 16.7074 221.107 17.0267C221.108 17.1751 221.108 17.3234 221.11 17.4718C221.115 18.1936 221.099 18.8962 220.998 19.6121C220.993 19.6491 220.987 19.6861 220.982 19.7242C220.732 21.4783 219.982 23.1963 218.581 24.2802C217.584 25.0274 216.423 25.3974 215.21 25.5534C215.186 25.5567 215.161 25.5601 215.136 25.5635C213.653 25.7446 211.898 25.5715 210.67 24.6228C210.51 24.4897 210.363 24.3442 210.219 24.1933C210.176 24.1492 210.176 24.1492 210.132 24.1041C209.918 23.874 209.769 23.6164 209.63 23.3343C209.611 23.297 209.592 23.2596 209.573 23.2211C209.154 22.3132 209.127 21.1964 209.429 20.2474C209.604 19.7821 209.843 19.4236 210.185 19.0752C210.213 19.0461 210.241 19.017 210.27 18.987C211.166 18.1082 212.574 17.7719 213.763 17.6279C213.967 17.6028 214.171 17.5772 214.375 17.5471C214.801 17.4844 215.226 17.4372 215.655 17.4015C215.829 17.387 216.002 17.3717 216.176 17.3564C216.209 17.3534 216.243 17.3505 216.278 17.3474C216.674 17.3121 217.069 17.2662 217.463 17.2141C217.507 17.2083 217.552 17.2025 217.598 17.1966C217.7 17.183 217.801 17.1687 217.903 17.1539C218.004 17.1394 218.106 17.1254 218.208 17.1113C219.722 16.9072 219.722 16.9072 221.009 16.1239C221.067 16.0688 221.067 16.0688 221.102 16.0688Z" fill="black"/>
<path d="M188.799 7.87321C189.302 7.87321 189.805 7.87321 190.324 7.87321C190.324 8.03906 190.324 8.20491 190.324 8.37578C190.327 9.89711 190.33 11.4184 190.333 12.9397C190.334 13.1392 190.334 13.3386 190.335 13.5381C190.335 13.5778 190.335 13.6175 190.335 13.6584C190.336 14.3011 190.337 14.9437 190.338 15.5864C190.339 16.2459 190.341 16.9055 190.342 17.5651C190.343 17.972 190.344 18.3789 190.345 18.7858C190.345 19.0649 190.346 19.344 190.346 19.6231C190.347 19.7841 190.347 19.9451 190.347 20.1061C190.347 20.2536 190.348 20.4012 190.348 20.5488C190.348 20.602 190.348 20.6552 190.348 20.7084C190.348 21.019 190.368 21.3124 190.427 21.6169C190.435 21.6573 190.442 21.6977 190.45 21.7393C190.61 22.4913 190.915 23.2091 191.398 23.8002C191.427 23.8357 191.455 23.8712 191.485 23.9078C192.379 24.9783 193.741 25.4715 195.072 25.5897C196.023 25.6542 197.017 25.5855 197.913 25.2318C197.974 25.2095 197.974 25.2095 198.036 25.1867C199.512 24.6168 200.618 23.5112 201.275 22.0408C201.706 21.043 201.869 19.9254 201.87 18.8399C201.87 18.7692 201.87 18.7692 201.87 18.697C201.871 18.5674 201.871 18.4378 201.871 18.3082C201.872 18.168 201.872 18.0277 201.873 17.8875C201.873 17.6449 201.874 17.4024 201.874 17.1598C201.875 16.8092 201.876 16.4585 201.877 16.1078C201.879 15.5387 201.88 14.9697 201.882 14.4006C201.883 13.8481 201.885 13.2955 201.886 12.7429C201.886 12.6918 201.886 12.6918 201.886 12.6396C201.887 12.4685 201.887 12.2975 201.888 12.1264C201.892 10.7087 201.896 9.29094 201.899 7.87321C202.402 7.87321 202.906 7.87321 203.424 7.87321C203.424 14.1331 203.424 20.3929 203.424 26.8424C203.024 26.8424 202.623 26.8424 202.211 26.8424C202.189 26.4465 202.168 26.0506 202.146 25.6546C202.144 25.6256 202.143 25.5965 202.141 25.5666C202.094 24.7035 202.047 23.8403 202.003 22.977C201.976 23.0342 201.976 23.0342 201.948 23.0926C201.923 23.1438 201.898 23.195 201.874 23.2461C201.862 23.2711 201.85 23.2961 201.838 23.3219C201.537 23.9466 201.152 24.4787 200.686 24.9813C200.67 24.9993 200.653 25.0174 200.636 25.036C199.91 25.8256 199.005 26.3405 198.017 26.6993C197.981 26.7128 197.981 26.7128 197.944 26.7267C197.529 26.8803 197.101 26.9541 196.666 27.0214C196.627 27.0278 196.589 27.0342 196.549 27.0408C196.186 27.0974 195.828 27.1072 195.461 27.1064C195.43 27.1064 195.399 27.1064 195.367 27.1064C194.83 27.1051 194.316 27.0619 193.789 26.9498C193.757 26.9433 193.725 26.9368 193.692 26.9301C192.481 26.6798 191.443 26.1192 190.531 25.2676C190.508 25.2462 190.485 25.2247 190.461 25.2026C189.588 24.3523 189.082 23.1046 188.886 21.9069C188.875 21.8382 188.863 21.7696 188.85 21.7011C188.794 21.4011 188.789 21.1066 188.79 20.8025C188.79 20.7465 188.79 20.6904 188.79 20.6344C188.79 20.4815 188.79 20.3287 188.791 20.1758C188.791 20.0105 188.791 19.8453 188.791 19.68C188.791 19.394 188.791 19.1081 188.791 18.8221C188.792 18.4087 188.792 17.9952 188.792 17.5817C188.792 16.9109 188.793 16.24 188.793 15.5691C188.794 14.9176 188.794 14.2661 188.795 13.6145C188.795 13.5743 188.795 13.5342 188.795 13.4927C188.795 13.2911 188.795 13.0895 188.795 12.8878C188.796 11.2163 188.797 9.54475 188.799 7.87321Z" fill="white"/>
<path d="M228.417 0C228.909 0 229.401 0 229.907 0C229.907 8.85826 229.907 17.7165 229.907 26.8432C229.415 26.8432 228.924 26.8432 228.417 26.8432C228.417 17.985 228.417 9.12669 228.417 0Z" fill="white"/>
<path d="M142.776 11.0236C142.8 11.0301 142.823 11.0366 142.848 11.0433C143.926 11.3509 144.78 12.1027 145.344 13.0848C145.553 13.472 145.726 13.8583 145.86 14.2806C145.873 14.3161 145.885 14.3517 145.898 14.3883C145.997 14.6765 146.043 14.9387 146.103 15.2469C143.004 15.2469 139.904 15.2469 136.711 15.2469C137.004 13.8322 137.713 12.4953 138.894 11.6678C139.318 11.3886 139.769 11.1714 140.252 11.0303C140.276 11.0233 140.3 11.0163 140.325 11.0092C141.115 10.7924 141.988 10.8056 142.776 11.0236Z" fill="black"/>
</svg>
