<svg width="1880" height="1508" viewBox="0 0 1880 1508" fill="none" xmlns="http://www.w3.org/2000/svg">
<g opacity="0.45" filter="url(#filter0_f_155_624)">
<path d="M545 814C545 620.7 701.7 464 895 464V464C1088.3 464 1245 620.7 1245 814V814C1245 1007.3 1088.3 1164 895 1164V1164C701.7 1164 545 1007.3 545 814V814Z" fill="url(#paint0_linear_155_624)"/>
<g opacity="0.4" filter="url(#filter1_f_155_624)">
<path d="M680 958C680 819.929 791.929 708 930 708H1330C1468.07 708 1580 819.929 1580 958V958C1580 1096.07 1468.07 1208 1330 1208H930C791.929 1208 680 1096.07 680 958V958Z" fill="url(#paint1_linear_155_624)"/>
</g>
<g opacity="0.5" filter="url(#filter2_f_155_624)">
<path d="M280 580C280 414.315 414.315 280 580 280H780C945.685 280 1080 414.315 1080 580V580C1080 745.685 945.685 880 780 880H580C414.315 880 280 745.685 280 580V580Z" fill="url(#paint2_linear_155_624)"/>
</g>
</g>
<defs>
<filter id="filter0_f_155_624" x="20" y="20" width="1820" height="1448" filterUnits="userSpaceOnUse" color-interpolation-filters="sRGB">
<feFlood flood-opacity="0" result="BackgroundImageFix"/>
<feBlend mode="normal" in="SourceGraphic" in2="BackgroundImageFix" result="shape"/>
<feGaussianBlur stdDeviation="130" result="effect1_foregroundBlur_155_624"/>
</filter>
<filter id="filter1_f_155_624" x="380" y="408" width="1500" height="1100" filterUnits="userSpaceOnUse" color-interpolation-filters="sRGB">
<feFlood flood-opacity="0" result="BackgroundImageFix"/>
<feBlend mode="normal" in="SourceGraphic" in2="BackgroundImageFix" result="shape"/>
<feGaussianBlur stdDeviation="150" result="effect1_foregroundBlur_155_624"/>
</filter>
<filter id="filter2_f_155_624" x="0" y="0" width="1360" height="1160" filterUnits="userSpaceOnUse" color-interpolation-filters="sRGB">
<feFlood flood-opacity="0" result="BackgroundImageFix"/>
<feBlend mode="normal" in="SourceGraphic" in2="BackgroundImageFix" result="shape"/>
<feGaussianBlur stdDeviation="140" result="effect1_foregroundBlur_155_624"/>
</filter>
<linearGradient id="paint0_linear_155_624" x1="1245" y1="464" x2="545" y2="1164" gradientUnits="userSpaceOnUse">
<stop stop-color="#A855F7" stop-opacity="0.5"/>
<stop offset="1" stop-color="#EC4899" stop-opacity="0.4"/>
</linearGradient>
<linearGradient id="paint1_linear_155_624" x1="680" y1="1208" x2="1104.53" y2="443.849" gradientUnits="userSpaceOnUse">
<stop stop-color="#10B981" stop-opacity="0.5"/>
<stop offset="1" stop-color="#34D399" stop-opacity="0.3"/>
</linearGradient>
<linearGradient id="paint2_linear_155_624" x1="280" y1="280" x2="856" y2="1048" gradientUnits="userSpaceOnUse">
<stop stop-color="#22D3EE" stop-opacity="0.6"/>
<stop offset="1" stop-color="#3B82F6" stop-opacity="0.4"/>
</linearGradient>
</defs>
</svg>
