<svg width="103" height="25" viewBox="0 0 103 25" fill="none" xmlns="http://www.w3.org/2000/svg">
<g clip-path="url(#clip0_135_207)">
<path d="M16.2014 0.970833L9.6737 7.57083H16.2014V0.970833ZM16.2014 0.970833V2.77778M9.65857 0V25M16.2014 14.1694L9.6737 7.56944M16.2014 14.1694V23.6312L9.6737 17.0312M16.2014 14.1694L9.67301 7.56944M16.2014 14.1694L16.2007 16.9931H19.0023V7.56944H9.67301M9.6737 7.56944V17.0312M9.6737 7.56944L3.14528 14.1694M9.6737 17.0312L3.14528 23.6312V14.1694M3.14528 14.1694L3.14459 16.9931H0.34375V7.56944H9.67301M3.14528 14.1694L9.67301 7.56944M9.67301 7.57083L3.14459 0.970833V7.57083H9.67301Z" stroke="white" stroke-miterlimit="10"/>
<path d="M38.1285 9.04728C38.5362 8.27714 39.1061 7.68409 39.841 7.26673C40.5746 6.85075 41.4353 6.64242 42.4226 6.64242C43.4098 6.64242 44.2272 6.84728 44.9113 7.2577C45.596 7.66812 46.1082 8.21186 46.4471 8.88895C46.7861 9.56673 46.9559 10.3091 46.9559 11.116V12.2341H39.2759C39.3378 13.2035 39.6616 13.9744 40.2473 14.5459C40.8331 15.1181 41.6196 15.4035 42.6075 15.4035C43.4091 15.4035 44.0237 15.2389 44.4486 14.9098C44.8748 14.5806 45.1856 14.1244 45.3836 13.5396H47.1422C46.9078 14.4466 46.4299 15.2334 45.7081 15.898C44.9869 16.5633 43.9529 16.8952 42.6082 16.8952C41.5962 16.8952 40.7045 16.6869 39.9331 16.2709C39.1625 15.8549 38.5664 15.2612 38.147 14.4903C37.7277 13.7195 37.518 12.8126 37.518 11.7681C37.518 10.7237 37.7215 9.81742 38.1292 9.04659L38.1285 9.04728ZM45.1058 10.8362C45.1058 9.99103 44.89 9.32992 44.4582 8.85075C44.0265 8.37228 43.3479 8.13339 42.4219 8.13339C41.5584 8.13339 40.8516 8.36603 40.303 8.832C39.7537 9.29798 39.4175 9.96673 39.2945 10.8362H45.1058ZM49.2631 6.92159V8.46881C49.2631 8.55631 49.3064 8.59937 49.393 8.59937C49.4425 8.59937 49.479 8.58687 49.5044 8.56187C49.5298 8.53687 49.5539 8.48756 49.578 8.41325C49.8983 7.3945 50.6945 6.88478 51.9656 6.88478H52.7796V8.56187H51.7243C50.8973 8.56187 50.2806 8.76048 49.8729 9.15839C49.4652 9.55631 49.2617 10.2084 49.2617 11.116V16.6153H47.5959V6.92089H49.2631V6.92159ZM62.5606 14.5737C62.1226 15.3501 61.5548 15.9313 60.8576 16.316C60.1605 16.7008 59.4105 16.8938 58.6089 16.8938C57.0297 16.8938 55.9187 16.2605 55.2773 14.9924C55.2278 14.8938 55.1659 14.8438 55.0923 14.8438C55.0188 14.8438 54.981 14.8813 54.981 14.9556V20.1563H53.3152V6.92228H54.981V8.58131C54.981 8.65562 55.0181 8.69311 55.0923 8.69311C55.1666 8.69311 55.2278 8.64312 55.2773 8.5445C55.9187 7.27645 57.0297 6.64312 58.6089 6.64312C59.4105 6.64312 60.1605 6.83617 60.8576 7.22089C61.5548 7.60561 62.1219 8.18686 62.5606 8.96395C62.9985 9.74034 63.2178 10.6764 63.2178 11.7688C63.2178 12.8612 62.9985 13.7966 62.5606 14.5737ZM60.6356 9.09312C60.0244 8.45284 59.2193 8.1327 58.2204 8.1327C57.2215 8.1327 56.4158 8.45284 55.8053 9.09312C55.1941 9.73339 54.97 10.6251 54.97 11.7681C54.97 12.9112 55.1941 13.8035 55.8053 14.4431C56.4164 15.0834 57.2215 15.4035 58.2204 15.4035C59.2193 15.4035 60.0251 15.0841 60.6356 14.4431C61.2468 13.8028 61.552 12.9112 61.552 11.7681C61.552 10.6251 61.2468 9.73339 60.6356 9.09312ZM65.635 3.19312V16.6146H63.9692V3.1945H65.635V3.19312ZM67.0066 9.04659C67.4136 8.27645 67.9842 7.68339 68.7191 7.26603C69.4527 6.85006 70.3134 6.64173 71.3 6.64173C72.2865 6.64173 73.1053 6.84659 73.7894 7.257C74.4741 7.66742 74.9863 8.21117 75.3252 8.88825C75.6648 9.56603 75.834 10.3084 75.834 11.1153V12.2334H68.154C68.2159 13.2028 68.5397 13.9737 69.1254 14.5452C69.7112 15.1174 70.4977 15.4028 71.4856 15.4028C72.2872 15.4028 72.9011 15.2383 73.3267 14.9091C73.7529 14.5799 74.0637 14.1237 74.2617 13.5389H76.0203C75.7858 14.4459 75.3073 15.2327 74.5862 15.8973C73.865 16.5626 72.831 16.8945 71.4863 16.8945C70.4743 16.8945 69.5826 16.6862 68.8112 16.2702C68.0406 15.8542 67.4445 15.2605 67.0251 14.4896C66.6058 13.7188 66.3961 12.8119 66.3961 11.7674C66.3961 10.723 66.5996 9.81673 67.0073 9.04589H67.0066V9.04659ZM73.9839 10.8355C73.9839 9.99034 73.768 9.32923 73.3363 8.85006C72.9046 8.37159 72.226 8.1327 71.3 8.1327C70.4371 8.1327 69.7297 8.36534 69.1811 8.83131C68.6318 9.29728 68.2963 9.96603 68.1726 10.8355H73.9839ZM75.0928 16.2417L78.905 11.4876L75.7776 7.29381V6.92089H77.6098L80.2202 10.5369L83.0334 6.92089H84.902V7.31256L81.3119 11.7681L84.6249 16.2417V16.6146H82.8299L79.9981 12.7188L76.9635 16.6146H75.0942V16.2417H75.0928ZM87.3206 3.76603V5.86395H85.375V3.76603H87.3206ZM87.2195 16.6153H85.553V6.92159H87.2195V16.6153ZM87.7448 6.92159H89.557V4.31187H91.2235V6.92159H93.1306L93.5987 8.34242H91.2235V12.9799C91.2235 13.6133 91.2076 14.0827 91.1767 14.3876C91.1458 14.6924 91.1306 14.8758 91.1306 14.9376C91.1306 15.0251 91.1547 15.0931 91.2042 15.1424C91.2537 15.1924 91.3211 15.2167 91.4084 15.2167C91.4696 15.2167 91.6518 15.2014 91.9543 15.1702C92.2561 15.1389 92.7222 15.1237 93.3519 15.1237H93.9995V16.6146H92.7043C91.6428 16.6146 90.8529 16.3542 90.3352 15.8313C89.8175 15.3091 89.5577 14.5146 89.5577 13.4452V8.34173H87.7461V6.92089H87.7448V6.92159ZM93.6324 6.92159H95.3305L98.0881 15.0542C98.1259 15.1542 98.1843 15.2855 98.3734 15.2855C98.5624 15.2855 98.6209 15.1535 98.658 15.0542L101.416 6.92159H103V7.2945L99.5497 17.7521C99.2534 18.6473 98.8374 19.2716 98.3012 19.6258C97.7643 19.9799 97.1407 20.157 96.1033 20.157H94.3268V18.666H95.6784C96.1101 18.666 96.4615 18.6813 96.733 18.7126C97.0039 18.7438 97.1771 18.7591 97.2514 18.7591C97.4611 18.7591 97.6027 18.666 97.6776 18.4799L98.196 17.0633C98.2579 16.9146 98.2634 16.8028 98.2146 16.7271C98.1898 16.6771 98.1596 16.6459 98.1224 16.6341C98.0853 16.6216 98.0296 16.6153 97.9561 16.6153H96.8272L93.6338 6.92228H93.6324V6.92159ZM36.4593 14.5896C36.0213 15.366 35.4535 15.9473 34.7563 16.332C34.0592 16.7167 33.3092 16.9098 32.5076 16.9098C30.9284 16.9098 29.8174 16.2764 29.176 15.0084C29.1265 14.9098 29.0646 14.8598 28.991 14.8598C28.9175 14.8598 28.8797 14.8973 28.8797 14.9716V20.1723H27.2139V6.93825H28.8797V8.59728C28.8797 8.67159 28.9168 8.70909 28.991 8.70909C29.0653 8.70909 29.1265 8.65909 29.176 8.56048C29.8167 7.29242 30.9284 6.65909 32.5076 6.65909C33.3092 6.65909 34.0592 6.85214 34.7563 7.23686C35.4535 7.62159 36.0206 8.20284 36.4593 8.97923C36.8972 9.75562 37.1165 10.6917 37.1165 11.7848C37.1165 12.8778 36.8972 13.8133 36.4593 14.5896ZM34.5343 9.10909C33.9231 8.46881 33.118 8.14867 32.1191 8.14867C31.1202 8.14867 30.3145 8.46881 29.704 9.10909C29.0928 9.74936 28.8687 10.641 28.8687 11.7841C28.8687 12.9271 29.0928 13.8195 29.704 14.4591C30.3151 15.0994 31.1202 15.4195 32.1191 15.4195C33.118 15.4195 33.9238 15.1001 34.5343 14.4591C35.1455 13.8188 35.4507 12.9271 35.4507 11.7841C35.4507 10.641 35.1455 9.74936 34.5343 9.10909Z" fill="white"/>
</g>
<defs>
<clipPath id="clip0_135_207">
<rect width="103" height="25" fill="white"/>
</clipPath>
</defs>
</svg>
