<svg width="91" height="22" viewBox="0 0 91 22" fill="none" xmlns="http://www.w3.org/2000/svg">
<path d="M31.711 16.3089C31.067 15.9762 30.5572 15.5253 30.1816 14.9548C29.8059 14.3844 29.6 13.7535 29.5645 13.0609H32.0861C32.1333 13.4959 32.3211 13.8551 32.6495 14.14C32.9774 14.4249 33.3857 14.5677 33.8745 14.5677C34.3633 14.5677 34.7238 14.4594 34.9921 14.2423C35.2604 14.0251 35.3946 13.7469 35.3946 13.4076C35.3946 13.041 35.2307 12.7661 34.9028 12.5828C34.575 12.3995 34.0536 12.1996 33.3378 11.9818C32.5982 11.7779 31.9933 11.5681 31.5226 11.3503C31.0513 11.1331 30.6465 10.8004 30.3064 10.3528C29.9664 9.90458 29.7966 9.30094 29.7966 8.54058C29.7966 7.91635 29.9547 7.34658 30.2708 6.82993C30.5864 6.31461 31.0396 5.90687 31.6299 5.60804C32.2202 5.30921 32.9144 5.15979 33.7135 5.15979C34.8941 5.15979 35.8355 5.49581 36.5396 6.16785C37.2431 6.83989 37.6304 7.74568 37.7021 8.8859H35.3053C35.2697 8.43765 35.1053 8.08171 34.8136 7.81674C34.5214 7.55178 34.1311 7.41962 33.6423 7.41962C33.1891 7.41962 32.8403 7.51459 32.5959 7.70451C32.3515 7.8951 32.229 8.1594 32.229 8.49874C32.229 8.87859 32.3958 9.16746 32.73 9.36403C33.0637 9.56126 33.5822 9.76114 34.2863 9.96501C35.0014 10.1682 35.5917 10.3794 36.0572 10.5965C36.5221 10.8137 36.9246 11.1497 37.2646 11.6046C37.6047 12.0595 37.7803 12.6605 37.7925 13.4069C37.7925 14.0583 37.6345 14.6421 37.3183 15.158C37.0022 15.674 36.5495 16.0778 35.9592 16.3693C35.3689 16.6608 34.6806 16.8069 33.8937 16.8069C33.1069 16.8069 32.3556 16.6409 31.7116 16.3082L31.711 16.3089Z" fill="white"/>
<path d="M43.685 5.68044C44.2514 5.33446 44.8983 5.16113 45.6257 5.16113C46.472 5.16113 47.2379 5.39887 47.9239 5.87368C48.6093 6.34915 49.1517 7.02385 49.5513 7.89976C49.9509 8.77501 50.1504 9.79037 50.1504 10.9439C50.1504 12.0974 49.9503 13.1194 49.5513 14.0086C49.1517 14.8977 48.6093 15.5864 47.9239 16.0751C47.2379 16.5639 46.472 16.8083 45.6257 16.8083C44.8983 16.8083 44.2572 16.6383 43.7031 16.2989C43.1484 15.9596 42.6987 15.5319 42.3528 15.0159V22H39.8486V5.34375H42.3528V6.97272C42.6747 6.45674 43.1186 6.02575 43.685 5.67977V5.68044ZM47.2263 9.18209C46.9819 8.68669 46.6599 8.31016 46.2603 8.05183C45.8607 7.79418 45.4285 7.66468 44.9636 7.66468C44.4987 7.66468 44.084 7.79683 43.685 8.0618C43.2855 8.32676 42.9635 8.70993 42.7191 9.21263C42.4747 9.71467 42.3522 10.3057 42.3522 10.9844C42.3522 11.6631 42.4741 12.2541 42.7191 12.7561C42.9635 13.2582 43.2855 13.642 43.685 13.9063C44.0846 14.1712 44.5104 14.3034 44.9636 14.3034C45.4168 14.3034 45.8607 14.1679 46.2603 13.8963C46.6599 13.6247 46.9819 13.2382 47.2263 12.7355C47.4707 12.2335 47.5932 11.6358 47.5932 10.9439C47.5932 10.2519 47.4707 9.67814 47.2263 9.18275V9.18209Z" fill="white"/>
<path d="M55.7402 5.6905C56.2588 5.35116 56.852 5.18115 57.5199 5.18115V8.17412H56.8584C56.0715 8.17412 55.4783 8.38463 55.0788 8.80565C54.6792 9.22667 54.4797 9.95981 54.4797 11.0051V16.6251H51.9756V5.34451H54.4797V7.09567C54.8017 6.49867 55.2222 6.02984 55.7408 5.6905H55.7402Z" fill="white"/>
<path d="M68.554 5.34448V16.6251H66.0324V15.2C65.7104 15.6887 65.2905 16.0726 64.7713 16.3501C64.2528 16.6284 63.6893 16.7678 63.0809 16.7678C62.3057 16.7678 61.6203 16.5812 61.0242 16.208C60.428 15.8348 59.9602 15.285 59.6202 14.5585C59.2801 13.8326 59.1104 12.9674 59.1104 11.9626V5.34515H61.6145V11.5555C61.6145 12.4514 61.811 13.1407 62.2048 13.6221C62.5985 14.1042 63.1346 14.3453 63.8147 14.3453C64.4948 14.3453 65.049 14.1042 65.4421 13.6221C65.8358 13.1407 66.0324 12.4514 66.0324 11.5555V5.34515H68.554V5.34448Z" fill="white"/>
<path d="M71.0054 7.91974C71.4224 7.04449 72.0011 6.36581 72.7401 5.8837C73.4792 5.40225 74.3255 5.16052 75.2798 5.16052C76.5077 5.16052 77.5244 5.50982 78.3293 6.20909C79.1343 6.90836 79.6733 7.88919 79.948 9.15159H77.2473C77.1044 8.66283 76.8629 8.27966 76.5228 8.00142C76.1828 7.72317 75.7628 7.58372 75.2617 7.58372C74.5466 7.58372 73.9796 7.87923 73.5626 8.46959C73.1449 9.05995 72.9367 9.89867 72.9367 10.9844C72.9367 12.0702 73.1449 12.8883 73.5626 13.4787C73.9796 14.069 74.546 14.3645 75.2617 14.3645C76.2749 14.3645 76.937 13.8486 77.2467 12.8173H79.9474C79.6733 14.0392 79.1308 15.01 78.32 15.7292C77.5092 16.4491 76.496 16.8083 75.2792 16.8083C74.3249 16.8083 73.4786 16.5673 72.7395 16.0858C71.9999 15.6044 71.4219 14.925 71.0048 14.0498C70.5871 13.1745 70.3789 12.1532 70.3789 10.9851C70.3789 9.81699 70.5871 8.79631 71.0048 7.9204L71.0054 7.91974Z" fill="white"/>
<path d="M90.9293 11.8398H83.6858C83.7453 12.6539 83.9955 13.2921 84.4371 13.7536C84.8781 14.2152 85.4205 14.4462 86.0645 14.4462C86.9943 14.4462 87.6563 13.9914 88.0495 13.0822H90.7502C90.4638 14.168 89.9155 15.0605 89.1047 15.7598C88.2939 16.459 87.2982 16.8083 86.1176 16.8083C85.1633 16.8083 84.3082 16.5673 83.5511 16.0858C82.7939 15.6044 82.2036 14.9217 81.7801 14.0392C81.3567 13.1573 81.1455 12.1386 81.1455 10.9851C81.1455 9.83161 81.3537 8.79301 81.7714 7.91046C82.1885 7.02791 82.7729 6.34989 83.5242 5.87441C84.2755 5.3996 85.14 5.16187 86.1176 5.16187C87.0952 5.16187 87.9031 5.39296 88.6485 5.85449C89.3934 6.31602 89.9721 6.97146 90.3833 7.81948C90.7945 8.66816 91.0004 9.64169 91.0004 10.7414C91.0004 11.1485 90.9765 11.515 90.9287 11.8411L90.9293 11.8398ZM88.4076 9.92591C88.3954 9.19278 88.1632 8.60574 87.71 8.1648C87.2568 7.72385 86.7021 7.50338 86.0464 7.50338C85.4264 7.50338 84.9043 7.71721 84.4814 8.14488C84.0579 8.57254 83.799 9.16622 83.7033 9.92658H88.4071L88.4076 9.92591Z" fill="white"/>
<path d="M18.6334 12.7527C18.2552 12.8926 17.8974 13.0958 17.5718 13.3557C17.2561 13.6069 16.9742 13.9088 16.7348 14.2522L13.1865 8.48277L15.0788 6.974L18.6334 12.7527Z" fill="white"/>
<path d="M24.0314 17.7009C24.0314 20.0683 22.3457 21.9875 20.2662 21.9875C18.1867 21.9875 16.501 20.0683 16.501 17.7009C16.501 15.3335 18.1867 13.4143 20.2662 13.4143C22.3457 13.4143 24.0314 15.3335 24.0314 17.7009Z" fill="white"/>
<path d="M7.53045 17.7009C7.53045 20.0683 5.8447 21.9875 3.76522 21.9875C1.68575 21.9875 0 20.0683 0 17.7009C0 15.3335 1.68575 13.4143 3.76522 13.4143C5.8447 13.4143 7.53045 15.3335 7.53045 17.7009Z" fill="white"/>
<path d="M10.3824 9.23465L6.82837 15.0134L4.93555 13.5046L8.48378 7.73584C8.71769 8.0712 8.99767 8.37401 9.32141 8.63167C9.64677 8.89163 10.0044 9.09486 10.3824 9.23465Z" fill="white"/>
<path d="M7.6207 13.7253L3.39747 20.5918L1.50488 19.0831L5.72812 12.2166L7.6207 13.7253Z" fill="white"/>
<path d="M15.7804 4.28658C15.7804 6.65399 14.0947 8.57316 12.0152 8.57316C9.93575 8.57316 8.25 6.65399 8.25 4.28658C8.25 1.91916 9.93575 0 12.0152 0C14.0947 0 15.7804 1.91916 15.7804 4.28658Z" fill="white"/>
<path d="M15.7804 4.28658C15.7804 6.65399 14.0947 8.57316 12.0152 8.57316C9.93575 8.57316 8.25 6.65399 8.25 4.28658C8.25 1.91916 9.93575 0 12.0152 0C14.0947 0 15.7804 1.91916 15.7804 4.28658Z" fill="white"/>
<path d="M11.6484 1.39526L15.8717 8.26176L13.9791 9.77053L9.75586 2.9039L11.6484 1.39526Z" fill="white"/>
</svg>
