<svg width="136" height="13" viewBox="0 0 136 13" fill="none" xmlns="http://www.w3.org/2000/svg">
<g clip-path="url(#clip0_135_210)">
<path d="M74.5236 4.96298V0.301392H77.3633V12.5231H74.5236V7.51111H69.4975V12.5231H66.6582V0.301409H69.4975V4.96302L74.5236 4.96298Z" fill="white"/>
<path d="M0.00459442 8.73462H2.84423C3.03905 9.87006 3.90126 10.4289 5.45324 10.4289C6.88192 10.4289 7.67472 9.88785 7.67472 8.96314C7.67472 8.24676 7.30526 7.91639 6.26385 7.68787L4.41183 7.28655C1.39745 6.6235 0.23299 5.60989 0.23299 3.61845C0.23299 1.43626 2.19024 0.0213623 5.18668 0.0213623C8.18308 0.0213623 10.1583 1.383 10.2815 3.82695H7.45982C7.26498 2.88441 6.49006 2.39437 5.18442 2.39437C3.87883 2.39437 3.06818 2.86661 3.06818 3.68728C3.06818 4.3148 3.41976 4.59425 4.656 4.89148L6.40045 5.27509C9.46861 5.9204 10.5099 6.88072 10.5099 9.04732C10.5099 11.3693 8.58846 12.8018 5.44876 12.8018C2.15221 12.8018 0.123202 11.3005 0 8.73238L0.00459442 8.73462Z" fill="white"/>
<path d="M21.1817 0.301392H24.0213V7.33808C24.0213 11.0395 22.2588 12.8026 18.6263 12.8026C14.9939 12.8026 13.2314 11.0395 13.2314 7.33808V0.301392H16.0711V7.40694C16.0711 9.39839 16.8459 10.2699 18.6285 10.2699C20.4112 10.2699 21.1861 9.39619 21.1861 7.40694V0.301392H21.1817Z" fill="white"/>
<path d="M49.68 12.5231H40.3701V0.301392H49.68V2.81628H43.2075V4.99848H48.701V7.51335H43.2075V10.0104H49.68V12.5253V12.5231Z" fill="white"/>
<path d="M88.6993 0.301392H91.5386V7.33808C91.5386 11.0395 89.7762 12.8026 86.1438 12.8026C82.5115 12.8026 80.749 11.0395 80.749 7.33808V0.301392H83.5884V7.40694C83.5884 9.39839 84.3635 10.2699 86.1462 10.2699C87.9289 10.2699 88.704 9.39619 88.704 7.40694V0.301392H88.6993Z" fill="white"/>
<path d="M101.269 6.15181L104.283 0.301514H107.616V12.5232H104.848V4.43981L101.585 10.8489H100.951L97.6885 4.43981V12.5232H94.9209V0.301514H98.2523L101.267 6.15181H101.269Z" fill="white"/>
<path d="M122.266 12.5225H119.445L118.986 9.39781H113.925L113.465 12.5225H110.644L111.772 4.78713C112.318 1.29439 113.552 0.0213623 116.446 0.0213623C119.339 0.0213623 120.589 1.2966 121.117 4.78713L122.265 12.5225H122.266ZM114.314 6.84964H118.599L118.334 5.01565C118.051 3.16386 117.593 2.55403 116.448 2.55403C115.304 2.55403 114.86 3.16606 114.579 5.01565L114.314 6.84964Z" fill="white"/>
<path d="M133.23 8.26305V0.301514H136V12.5232H133.159L128.065 4.56165V12.5232H125.297V0.301514H128.136L133.23 8.26305Z" fill="white"/>
<path d="M59.0728 0.271973C59.9447 0.271992 60.7103 0.432456 61.3701 0.753189C62.0299 1.07427 62.5426 1.53511 62.9078 2.13587C63.2729 2.73685 63.4557 3.44562 63.4557 4.26205C63.4557 5.07855 63.2725 5.69311 62.9074 6.29389C62.5422 6.89491 61.8796 7.39679 61.1976 7.67925C61.0755 7.72982 60.813 7.81942 60.4605 7.93463L63.6159 12.5117H60.231L57.7108 8.7962C57.0875 8.9871 56.4745 9.17247 55.9603 9.32803V12.5225H53.1201V0.271973H59.0728ZM55.9603 6.58417C57.2858 6.25105 59.1691 5.76979 59.612 5.60755C59.9185 5.49534 60.6941 5.23981 60.6941 4.26205C60.6941 3.09358 59.5244 2.98444 58.7865 2.98443H55.9603V6.58417Z" fill="white"/>
<path d="M27.4033 0.271973H33.3556C34.2274 0.271973 34.9932 0.432428 35.6531 0.753182C36.3128 1.07426 36.8253 1.53502 37.1906 2.13578C37.5557 2.73681 37.7385 3.4456 37.7385 4.26213C37.7385 5.07863 37.5554 5.69303 37.1903 6.29381C36.825 6.89483 36.163 7.39682 35.4806 7.67929C34.7425 7.98485 28.8833 9.73815 28.8833 9.73815L28.8879 6.92251C28.8879 6.92251 33.1939 5.86419 33.8951 5.60744C34.2015 5.49526 34.9769 5.23992 34.9769 4.26213C34.9769 3.09349 33.8074 2.98452 33.0695 2.98452H29.4477L30.243 2.19695V12.5224H27.4033V0.271973Z" fill="white"/>
</g>
<defs>
<clipPath id="clip0_135_210">
<rect width="136" height="13" fill="white"/>
</clipPath>
</defs>
</svg>
