<svg width="71" height="17" viewBox="0 0 71 17" fill="none" xmlns="http://www.w3.org/2000/svg">
<g clip-path="url(#clip0_135_243)">
<path d="M7.15751 7.15497V3.62603H3.56239V0.0991211H0V10.3736C0.00189606 12.0352 0.668992 13.6282 1.85496 14.8032C3.04093 15.9782 4.64896 16.6393 6.32631 16.6415H7.15341V13.1126H6.32631C5.59326 13.1126 4.89026 12.8241 4.37192 12.3106C3.85359 11.7972 3.56239 11.1007 3.56239 10.3746V7.15497H7.15751Z" fill="white"/>
<path d="M44.3316 13.1075C44.1415 13.1075 43.9594 13.0327 43.8248 12.8996C43.6906 12.7665 43.6152 12.5859 43.6152 12.3976V0.0991211H40.0527V7.88103V13.5699C40.0527 15.1924 41.32 16.5664 42.9536 16.6384C42.9997 16.6384 43.5681 16.6384 43.6152 16.6384H45.0174V13.1075H44.3316Z" fill="white"/>
<path d="M20.5704 5.14306C19.213 3.75516 17.5069 3.06086 15.4521 3.06018C13.417 3.06018 11.7344 3.71493 10.4043 5.02443C9.07426 6.33389 8.40918 7.97873 8.40918 9.95883C8.40918 11.9748 9.06504 13.6372 10.3767 14.946C11.6884 16.2548 13.3713 16.9092 15.4255 16.9092C17.1029 16.9092 18.5671 16.4803 19.818 15.6224C20.4751 15.1814 21.0433 14.6229 21.4938 13.9755C21.9728 13.2626 22.2729 12.4466 22.369 11.5955H18.6562L18.6377 11.6969C18.5675 12.0496 18.4181 12.3822 18.2007 12.67C17.9833 12.9579 17.7034 13.1937 17.3817 13.36L17.3663 13.3671C16.8209 13.6325 16.2193 13.7647 15.6117 13.7524C14.5198 13.7524 13.663 13.4739 13.0413 12.9169C12.4305 12.385 12.0563 11.6357 12.0002 10.8319H22.4417C22.5488 8.42793 21.9251 6.53166 20.5704 5.14306ZM12.1343 8.44586C12.3125 7.68599 12.683 7.08906 13.246 6.65503C13.809 6.22099 14.5099 6.00433 15.3487 6.00503C16.0339 6.00203 16.7031 6.21079 17.2629 6.60229C17.843 7.00116 18.2313 7.61566 18.4279 8.44586H12.1343Z" fill="white"/>
<path d="M38.2226 13.0893C38.0328 13.0893 37.8504 13.0145 37.7162 12.8814C37.5816 12.7483 37.5062 12.5677 37.5062 12.3795V11.3806V3.6261H33.8364V4.8379C33.4787 4.3606 32.9607 3.94517 32.2823 3.5916C31.5704 3.22957 30.7793 3.04706 29.9791 3.06024C28.2122 3.06024 26.7214 3.74133 25.5066 5.10357C24.2919 6.4658 23.6849 8.09303 23.6855 9.98527C23.6855 11.8782 24.2926 13.5054 25.5066 14.8669C26.7207 16.2285 28.2115 16.9093 29.9791 16.9093C30.7792 16.9228 31.5703 16.7406 32.2823 16.3789C32.9614 16.0247 33.4793 15.6089 33.8364 15.1316L34.1924 14.7676C34.4128 15.2927 34.7782 15.7454 35.2473 16.0733C35.7164 16.4011 36.2696 16.5908 36.843 16.6203C36.8887 16.6203 37.4571 16.6203 37.5042 16.6203H38.8094V13.0893H38.2226ZM33.2067 12.5823C32.5925 13.2542 31.7756 13.5902 30.756 13.5902C29.7365 13.5902 28.9196 13.2542 28.3054 12.5823C27.6912 11.9103 27.3841 11.0436 27.3841 9.9822C27.3841 8.92083 27.6912 8.05413 28.3054 7.38217C28.9196 6.71017 29.7365 6.3742 30.756 6.3742C31.7756 6.3742 32.5925 6.71087 33.2067 7.3842C33.8209 8.05617 34.1281 8.92287 34.1281 9.98423C34.1281 11.0456 33.8209 11.9126 33.2067 12.5853V12.5823Z" fill="white"/>
<path fill-rule="evenodd" clip-rule="evenodd" d="M53.5402 0.0899671H62.6477C63.8968 0.0890731 65.1014 0.548603 66.0271 1.37911C66.9531 2.20961 67.5336 3.35166 67.6564 4.58296C67.7789 5.81426 67.4347 7.04673 66.6907 8.04039C66.3515 8.49319 65.9403 8.88166 65.4773 9.19319H70.9998L68.9485 11.1584L70.9877 13.1125H63.2547V10.022L63.2507 10.0227L63.2426 6.38829C63.2416 5.65679 62.9482 4.95543 62.4266 4.43773C61.9051 3.92003 61.1974 3.62813 60.4592 3.62599H53.5402V0.0899671ZM53.5348 10.3472V3.62599H49.9717V10.4861C49.9717 11.2945 50.1322 12.0949 50.4445 12.8417C50.7567 13.5885 51.2143 14.267 51.7914 14.8386C52.3685 15.4102 53.0536 15.8636 53.8074 16.1729C54.5611 16.4823 55.3694 16.6415 56.1854 16.6415H60.3158C61.0921 16.6404 61.8364 16.3342 62.3852 15.79C62.9337 15.2459 63.2423 14.5083 63.2423 13.7392V13.1125H56.3223C55.5827 13.1115 54.8737 12.8196 54.3511 12.3012C53.8286 11.7827 53.5348 11.0799 53.5348 10.3472ZM57.811 6.19026C57.5996 6.50376 57.4873 6.87229 57.4873 7.24923C57.4873 7.75429 57.6898 8.23869 58.0505 8.59586C58.4109 8.95299 58.8998 9.15363 59.4096 9.15363C59.7902 9.15383 60.1624 9.04223 60.4787 8.83293C60.7953 8.62366 61.042 8.32606 61.1877 7.97786C61.3334 7.62966 61.3717 7.24646 61.2974 6.87673C61.2233 6.50703 61.0399 6.16743 60.7711 5.90089C60.5019 5.63436 60.159 5.45286 59.7858 5.37936C59.4127 5.30586 59.0257 5.34369 58.6744 5.48803C58.3228 5.63236 58.0223 5.87676 57.811 6.19026Z" fill="white"/>
</g>
<defs>
<clipPath id="clip0_135_243">
<rect width="71" height="17" fill="white"/>
</clipPath>
</defs>
</svg>
